<?xml version="1.0" encoding="UTF-8" standalone="no"?>
<svg
   xmlns:dc="http://purl.org/dc/elements/1.1/"
   xmlns:cc="http://creativecommons.org/ns#"
   xmlns:rdf="http://www.w3.org/1999/02/22-rdf-syntax-ns#"
   xmlns:svg="http://www.w3.org/2000/svg"
   xmlns="http://www.w3.org/2000/svg"
   xmlns:sodipodi="http://sodipodi.sourceforge.net/DTD/sodipodi-0.dtd"
   xmlns:inkscape="http://www.inkscape.org/namespaces/inkscape"
   width="1458.3101"
   height="620.39368"
   viewBox="0 0 1458.3101 620.39368"
   fill="none"
   version="1.1"
   id="svg5311"
   sodipodi:docname="dask-overview.svg"
   inkscape:version="0.92.5 (2060ec1f9f, 2020-04-08)">
  <metadata
     id="metadata60">
    <rdf:RDF>
      <cc:Work
         rdf:about="">
        <dc:format>image/svg+xml</dc:format>
        <dc:type
           rdf:resource="http://purl.org/dc/dcmitype/StillImage" />
      </cc:Work>
    </rdf:RDF>
  </metadata>
  <defs
     id="defs5315" />
  <sodipodi:namedview
     id="namedview5313"
     pagecolor="#ffffff"
     bordercolor="#666666"
     borderopacity="1.0"
     inkscape:pageshadow="2"
     inkscape:pageopacity="0.0"
     inkscape:pagecheckerboard="0"
     showgrid="false"
     inkscape:zoom="0.5787037"
     inkscape:cx="736.992"
     inkscape:cy="345.6"
     inkscape:window-width="1848"
     inkscape:window-height="1023"
     inkscape:window-x="72"
     inkscape:window-y="27"
     inkscape:window-maximized="0"
     inkscape:current-layer="svg5311" />
  <rect
     x="359.80603"
     y="148.881"
     width="740"
     height="470"
     rx="10"
     fill="#ffffff"
     stroke="#62636c"
     stroke-width="3"
     stroke-linecap="round"
     stroke-dasharray="4, 7"
     id="rect5201" />
  <path
     d="m 629.699,10.315 h -11.084 v 30.566 h -6.128 V 10.315 H 601.501 V 5.334 h 28.198 z m 15.796,30.566 c -0.26,-0.505 -0.488,-1.326 -0.684,-2.466 -1.888,1.97 -4.199,2.954 -6.933,2.954 -2.653,0 -4.818,-0.757 -6.494,-2.27 -1.677,-1.514 -2.515,-3.386 -2.515,-5.615 0,-2.816 1.042,-4.973 3.125,-6.47 2.1,-1.514 5.094,-2.271 8.984,-2.271 h 3.638 V 23.01 c 0,-1.367 -0.382,-2.458 -1.147,-3.272 -0.765,-0.83 -1.929,-1.245 -3.492,-1.245 -1.35,0 -2.457,0.342 -3.32,1.026 -0.863,0.667 -1.294,1.522 -1.294,2.563 h -5.932 c 0,-1.448 0.48,-2.799 1.44,-4.053 0.96,-1.269 2.262,-2.262 3.906,-2.978 1.66,-0.716 3.508,-1.074 5.542,-1.074 3.093,0 5.558,0.781 7.398,2.343 1.839,1.547 2.783,3.728 2.832,6.543 v 11.914 c 0,2.377 0.333,4.273 1.001,5.689 v 0.415 z m -6.519,-4.272 c 1.172,0 2.271,-0.285 3.296,-0.855 1.042,-0.57 1.823,-1.335 2.344,-2.295 v -4.98 h -3.198 c -2.197,0 -3.849,0.382 -4.956,1.147 -1.107,0.765 -1.66,1.847 -1.66,3.247 0,1.14 0.374,2.051 1.123,2.735 0.765,0.667 1.782,1.001 3.051,1.001 z m 32.593,-2.906 c 0,-1.058 -0.439,-1.863 -1.318,-2.417 -0.863,-0.553 -2.303,-1.041 -4.321,-1.465 -2.019,-0.423 -3.703,-0.96 -5.054,-1.611 -2.962,-1.432 -4.443,-3.507 -4.443,-6.225 0,-2.279 0.96,-4.183 2.88,-5.713 1.921,-1.53 4.362,-2.295 7.325,-2.295 3.157,0 5.704,0.781 7.641,2.343 1.953,1.563 2.93,3.589 2.93,6.08 h -5.933 c 0,-1.14 -0.423,-2.084 -1.269,-2.832 -0.847,-0.765 -1.97,-1.148 -3.369,-1.148 -1.302,0 -2.369,0.301 -3.199,0.903 -0.813,0.603 -1.22,1.408 -1.22,2.417 0,0.912 0.382,1.62 1.147,2.124 0.765,0.505 2.311,1.018 4.639,1.538 2.327,0.505 4.15,1.115 5.469,1.832 1.334,0.699 2.319,1.546 2.954,2.539 0.651,0.992 0.976,2.197 0.976,3.613 0,2.376 -0.985,4.305 -2.954,5.786 -1.969,1.465 -4.549,2.197 -7.739,2.197 -2.165,0 -4.094,-0.39 -5.786,-1.172 -1.693,-0.781 -3.011,-1.855 -3.955,-3.222 -0.944,-1.367 -1.416,-2.84 -1.416,-4.419 h 5.761 c 0.082,1.4 0.611,2.482 1.587,3.247 0.977,0.749 2.271,1.123 3.882,1.123 1.563,0 2.751,-0.293 3.565,-0.879 0.813,-0.602 1.22,-1.383 1.22,-2.344 z m 19.605,-4.15 -2.637,2.71 v 8.618 h -5.933 v -37.5 h 5.933 v 21.631 l 1.855,-2.319 7.3,-8.228 h 7.129 l -9.814,11.011 10.864,15.405 h -6.86 z m 57.812,6.714 c -1.286,1.676 -3.068,2.946 -5.346,3.808 -2.279,0.863 -4.867,1.294 -7.764,1.294 -2.979,0 -5.615,-0.675 -7.91,-2.026 -2.295,-1.351 -4.069,-3.28 -5.323,-5.786 -1.237,-2.523 -1.879,-5.461 -1.928,-8.814 V 21.96 c 0,-5.371 1.286,-9.562 3.857,-12.573 2.572,-3.027 6.161,-4.541 10.767,-4.541 3.955,0 7.096,0.976 9.424,2.93 2.327,1.953 3.727,4.768 4.199,8.447 h -6.055 c -0.683,-4.281 -3.166,-6.421 -7.446,-6.421 -2.767,0 -4.875,1.001 -6.323,3.003 -1.433,1.986 -2.173,4.907 -2.222,8.764 v 2.735 c 0,3.841 0.806,6.828 2.417,8.96 1.628,2.116 3.882,3.174 6.763,3.174 3.157,0 5.403,-0.717 6.738,-2.149 v -6.958 h -7.324 v -4.687 h 13.476 z M 769.03,19.885 c -0.78,-0.13 -1.59,-0.195 -2.417,-0.195 -2.718,0 -4.549,1.041 -5.493,3.125 v 18.066 h -5.933 V 14.465 h 5.664 l 0.147,2.954 c 1.432,-2.295 3.418,-3.442 5.957,-3.442 0.845,0 1.545,0.114 2.095,0.342 z m 18.8,20.996 c -0.26,-0.505 -0.49,-1.326 -0.68,-2.466 -1.89,1.97 -4.2,2.954 -6.94,2.954 -2.65,0 -4.82,-0.757 -6.49,-2.27 -1.68,-1.514 -2.52,-3.386 -2.52,-5.615 0,-2.816 1.04,-4.973 3.13,-6.47 2.1,-1.514 5.09,-2.271 8.98,-2.271 h 3.64 V 23.01 c 0,-1.367 -0.38,-2.458 -1.15,-3.272 -0.76,-0.83 -1.93,-1.245 -3.49,-1.245 -1.35,0 -2.46,0.342 -3.32,1.026 -0.86,0.667 -1.29,1.522 -1.29,2.563 h -5.94 c 0,-1.448 0.48,-2.799 1.44,-4.053 0.97,-1.269 2.27,-2.262 3.91,-2.978 1.66,-0.716 3.51,-1.074 5.54,-1.074 3.1,0 5.56,0.781 7.4,2.343 1.84,1.547 2.78,3.728 2.83,6.543 v 11.914 c 0,2.377 0.34,4.273 1,5.689 v 0.415 z m -6.52,-4.272 c 1.17,0 2.27,-0.285 3.3,-0.855 1.04,-0.57 1.82,-1.335 2.34,-2.295 v -4.98 h -3.2 c -2.2,0 -3.85,0.382 -4.95,1.147 -1.11,0.765 -1.66,1.847 -1.66,3.247 0,1.14 0.37,2.051 1.12,2.735 0.76,0.667 1.78,1.001 3.05,1.001 z m 40.92,-8.667 c 0,4.085 -0.93,7.348 -2.78,9.79 -1.86,2.425 -4.35,3.637 -7.48,3.637 -2.89,0 -5.21,-0.952 -6.95,-2.856 v 12.524 h -5.94 V 14.465 h 5.47 l 0.25,2.686 c 1.74,-2.116 4.11,-3.174 7.1,-3.174 3.22,0 5.75,1.204 7.57,3.613 1.84,2.393 2.76,5.721 2.76,9.985 z m -5.91,-0.513 c 0,-2.637 -0.53,-4.728 -1.59,-6.275 -1.04,-1.546 -2.54,-2.319 -4.49,-2.319 -2.42,0 -4.17,1.001 -5.22,3.003 v 11.719 c 1.07,2.051 2.83,3.076 5.27,3.076 1.89,0 3.36,-0.757 4.42,-2.271 1.07,-1.53 1.61,-3.841 1.61,-6.933 z m 16.8,-10.083 c 1.93,-2.246 4.38,-3.369 7.35,-3.369 5.63,0 8.48,3.214 8.57,9.643 V 40.881 H 843.1 V 23.84 c 0,-1.823 -0.4,-3.109 -1.19,-3.857 -0.79,-0.765 -1.94,-1.148 -3.47,-1.148 -2.38,0 -4.15,1.058 -5.32,3.174 v 18.872 h -5.94 v -37.5 h 5.94 z"
     fill="#1d1d1d"
     id="path5203"
     style="fill:#d1cfc7;fill-opacity:1" />
  <path
     d="m 1199.06,31.726 c 0,-1.563 -0.55,-2.767 -1.66,-3.614 -1.09,-0.846 -3.06,-1.7 -5.93,-2.563 -2.86,-0.863 -5.14,-1.823 -6.83,-2.881 -3.24,-2.034 -4.86,-4.687 -4.86,-7.959 0,-2.864 1.16,-5.224 3.49,-7.08 2.34,-1.855 5.38,-2.783 9.11,-2.783 2.47,0 4.67,0.456 6.61,1.367 1.94,0.911 3.46,2.214 4.57,3.906 1.1,1.677 1.66,3.54 1.66,5.591 h -6.16 c 0,-1.855 -0.58,-3.304 -1.75,-4.346 -1.16,-1.058 -2.82,-1.587 -4.98,-1.587 -2.02,0 -3.59,0.432 -4.72,1.294 -1.1,0.863 -1.66,2.067 -1.66,3.614 0,1.302 0.61,2.392 1.81,3.271 1.21,0.863 3.19,1.709 5.96,2.539 2.77,0.814 4.99,1.75 6.66,2.808 1.68,1.042 2.91,2.246 3.69,3.613 0.78,1.351 1.17,2.938 1.17,4.761 0,2.962 -1.14,5.322 -3.42,7.08 -2.26,1.742 -5.33,2.612 -9.22,2.612 -2.58,0 -4.94,-0.472 -7.11,-1.416 -2.15,-0.96 -3.82,-2.278 -5.03,-3.955 -1.19,-1.676 -1.78,-3.629 -1.78,-5.859 h 6.18 c 0,2.018 0.66,3.581 2,4.687 1.33,1.107 3.24,1.66 5.74,1.66 2.14,0 3.75,-0.431 4.83,-1.293 1.09,-0.879 1.63,-2.035 1.63,-3.467 z m 21.88,4.907 c 1.48,0 2.71,-0.431 3.69,-1.294 0.97,-0.863 1.49,-1.929 1.56,-3.198 h 5.59 c -0.07,1.644 -0.58,3.182 -1.54,4.614 -0.96,1.416 -2.26,2.539 -3.9,3.369 -1.65,0.83 -3.42,1.245 -5.33,1.245 -3.69,0 -6.62,-1.196 -8.79,-3.589 -2.16,-2.392 -3.24,-5.696 -3.24,-9.912 v -0.61 c 0,-4.02 1.07,-7.235 3.22,-9.644 2.15,-2.425 5.08,-3.637 8.79,-3.637 3.14,0 5.7,0.919 7.66,2.758 1.99,1.823 3.03,4.224 3.13,7.203 h -5.59 c -0.07,-1.514 -0.59,-2.759 -1.56,-3.736 -0.96,-0.976 -2.19,-1.465 -3.69,-1.465 -1.92,0 -3.4,0.7 -4.44,2.1 -1.05,1.384 -1.57,3.491 -1.59,6.323 v 0.952 c 0,2.865 0.51,5.005 1.54,6.421 1.04,1.4 2.54,2.1 4.49,2.1 z m 21.17,-19.287 c 1.93,-2.246 4.38,-3.369 7.35,-3.369 5.63,0 8.48,3.214 8.56,9.643 v 17.261 h -5.93 V 23.84 c 0,-1.823 -0.4,-3.109 -1.19,-3.857 -0.79,-0.765 -1.94,-1.148 -3.47,-1.148 -2.38,0 -4.15,1.058 -5.32,3.174 v 18.872 h -5.94 v -37.5 h 5.94 z m 33.57,24.023 c -3.76,0 -6.82,-1.18 -9.16,-3.54 -2.33,-2.376 -3.49,-5.534 -3.49,-9.472 v -0.733 c 0,-2.637 0.5,-4.988 1.51,-7.055 1.03,-2.084 2.46,-3.703 4.3,-4.859 1.84,-1.155 3.89,-1.733 6.15,-1.733 3.6,0 6.37,1.147 8.33,3.442 1.97,2.295 2.95,5.542 2.95,9.741 v 2.393 h -17.26 c 0.18,2.181 0.9,3.906 2.17,5.176 1.29,1.269 2.9,1.904 4.84,1.904 2.72,0 4.93,-1.099 6.64,-3.296 l 3.2,3.052 c -1.06,1.579 -2.48,2.807 -4.25,3.686 -1.76,0.863 -3.74,1.294 -5.93,1.294 z m -0.71,-22.632 c -1.63,0 -2.95,0.57 -3.96,1.709 -0.99,1.14 -1.62,2.727 -1.9,4.761 h 11.3 v -0.439 c -0.13,-1.986 -0.66,-3.483 -1.58,-4.492 -0.93,-1.026 -2.22,-1.539 -3.86,-1.539 z m 14.82,8.741 c 0,-4.069 0.94,-7.333 2.83,-9.79 1.89,-2.474 4.42,-3.711 7.59,-3.711 2.8,0 5.06,0.976 6.79,2.929 V 3.381 h 5.93 v 37.5 h -5.37 l -0.29,-2.734 c -1.78,2.148 -4.14,3.222 -7.11,3.222 -3.09,0 -5.6,-1.245 -7.52,-3.735 -1.9,-2.49 -2.85,-5.876 -2.85,-10.156 z m 5.93,0.512 c 0,2.686 0.51,4.786 1.54,6.299 1.04,1.498 2.51,2.246 4.42,2.246 2.42,0 4.2,-1.082 5.32,-3.247 V 22.009 c -1.09,-2.116 -2.85,-3.174 -5.27,-3.174 -1.92,0 -3.41,0.765 -4.45,2.295 -1.04,1.514 -1.56,3.8 -1.56,6.86 z m 39.4,10.303 c -1.74,2.051 -4.21,3.076 -7.42,3.076 -2.86,0 -5.03,-0.838 -6.52,-2.514 -1.46,-1.677 -2.19,-4.102 -2.19,-7.276 V 14.465 h 5.93 v 17.041 c 0,3.353 1.39,5.029 4.17,5.029 2.88,0 4.83,-1.033 5.84,-3.1 v -18.97 h 5.93 v 26.416 h -5.59 z m 18.1,2.588 h -5.94 v -37.5 h 5.94 z m 18.11,0.488 c -3.76,0 -6.81,-1.18 -9.15,-3.54 -2.33,-2.376 -3.5,-5.534 -3.5,-9.472 v -0.733 c 0,-2.637 0.51,-4.988 1.52,-7.055 1.02,-2.084 2.46,-3.703 4.29,-4.859 1.84,-1.155 3.89,-1.733 6.16,-1.733 3.59,0 6.37,1.147 8.32,3.442 1.97,2.295 2.96,5.542 2.96,9.741 v 2.393 h -17.26 c 0.17,2.181 0.9,3.906 2.17,5.176 1.28,1.269 2.9,1.904 4.83,1.904 2.72,0 4.93,-1.099 6.64,-3.296 l 3.2,3.052 c -1.06,1.579 -2.47,2.807 -4.25,3.686 -1.75,0.863 -3.73,1.294 -5.93,1.294 z m -0.71,-22.632 c -1.63,0 -2.94,0.57 -3.95,1.709 -1,1.14 -1.63,2.727 -1.91,4.761 h 11.31 v -0.439 c -0.13,-1.986 -0.66,-3.483 -1.59,-4.492 -0.93,-1.026 -2.21,-1.539 -3.86,-1.539 z m 29.76,1.148 c -0.78,-0.13 -1.58,-0.195 -2.41,-0.195 -2.72,0 -4.55,1.041 -5.5,3.125 v 18.066 h -5.93 V 14.465 h 5.66 l 0.15,2.954 c 1.43,-2.295 3.42,-3.442 5.96,-3.442 0.84,0 1.54,0.114 2.1,0.342 z m 18.56,13.818 c 0,-1.058 -0.44,-1.863 -1.32,-2.417 -0.86,-0.553 -2.3,-1.041 -4.32,-1.465 -2.02,-0.423 -3.7,-0.96 -5.06,-1.611 -2.96,-1.432 -4.44,-3.507 -4.44,-6.225 0,-2.279 0.96,-4.183 2.88,-5.713 1.92,-1.53 4.36,-2.295 7.33,-2.295 3.15,0 5.7,0.781 7.64,2.343 1.95,1.563 2.93,3.589 2.93,6.08 h -5.94 c 0,-1.14 -0.42,-2.084 -1.26,-2.832 -0.85,-0.765 -1.97,-1.148 -3.37,-1.148 -1.31,0 -2.37,0.301 -3.2,0.903 -0.82,0.603 -1.22,1.408 -1.22,2.417 0,0.912 0.38,1.62 1.14,2.124 0.77,0.505 2.32,1.018 4.64,1.538 2.33,0.505 4.15,1.115 5.47,1.832 1.34,0.699 2.32,1.546 2.96,2.539 0.65,0.992 0.97,2.197 0.97,3.613 0,2.376 -0.98,4.305 -2.95,5.786 -1.97,1.465 -4.55,2.197 -7.74,2.197 -2.17,0 -4.09,-0.39 -5.79,-1.172 -1.69,-0.781 -3.01,-1.855 -3.95,-3.222 -0.95,-1.367 -1.42,-2.84 -1.42,-4.419 h 5.76 c 0.09,1.4 0.61,2.482 1.59,3.247 0.98,0.749 2.27,1.123 3.88,1.123 1.57,0 2.75,-0.293 3.57,-0.879 0.81,-0.602 1.22,-1.383 1.22,-2.344 z"
     fill="#1d1d1d"
     id="path5205"
     style="fill:#d1cfc7;fill-opacity:1" />
  <path
     d="m 53.975,29.309 c -0.358,3.792 -1.758,6.754 -4.199,8.886 -2.442,2.116 -5.689,3.174 -9.741,3.174 -2.832,0 -5.331,-0.667 -7.496,-2.002 -2.148,-1.351 -3.808,-3.263 -4.98,-5.737 -1.172,-2.474 -1.782,-5.347 -1.831,-8.618 v -3.32 c 0,-3.353 0.594,-6.307 1.782,-8.863 1.188,-2.555 2.889,-4.524 5.103,-5.908 2.23,-1.383 4.801,-2.075 7.715,-2.075 3.922,0 7.08,1.066 9.472,3.198 2.393,2.132 3.784,5.143 4.175,9.033 H 47.823 C 47.53,14.522 46.781,12.683 45.577,11.56 44.388,10.42 42.639,9.851 40.328,9.851 c -2.686,0 -4.753,0.984 -6.202,2.954 -1.432,1.953 -2.164,4.826 -2.197,8.618 v 3.149 c 0,3.842 0.684,6.771 2.051,8.789 1.383,2.019 3.402,3.028 6.055,3.028 2.425,0 4.248,-0.545 5.468,-1.636 1.221,-1.09 1.994,-2.905 2.32,-5.444 z m 3.857,-1.88 c 0,-2.588 0.513,-4.916 1.538,-6.983 1.026,-2.083 2.466,-3.678 4.322,-4.785 1.855,-1.123 3.987,-1.684 6.396,-1.684 3.565,0 6.454,1.147 8.667,3.442 2.23,2.295 3.435,5.339 3.614,9.131 l 0.024,1.392 c 0,2.604 -0.505,4.931 -1.514,6.982 -0.993,2.051 -2.425,3.638 -4.297,4.761 -1.855,1.123 -4.003,1.684 -6.445,1.684 -3.727,0 -6.714,-1.237 -8.96,-3.711 -2.23,-2.49 -3.345,-5.802 -3.345,-9.936 z m 5.933,0.513 c 0,2.718 0.562,4.85 1.685,6.396 1.123,1.53 2.685,2.295 4.687,2.295 2.002,0 3.556,-0.781 4.663,-2.344 1.123,-1.562 1.685,-3.849 1.685,-6.86 0,-2.669 -0.578,-4.785 -1.734,-6.348 -1.139,-1.562 -2.693,-2.344 -4.663,-2.344 -1.937,0 -3.475,0.774 -4.614,2.32 -1.139,1.53 -1.709,3.825 -1.709,6.885 z m 29.956,12.939 h -5.933 v -37.5 h 5.933 z m 12.793,0 h -5.933 v -37.5 h 5.933 z m 18.115,0.488 c -3.759,0 -6.811,-1.18 -9.155,-3.54 -2.327,-2.376 -3.491,-5.534 -3.491,-9.472 v -0.733 c 0,-2.637 0.504,-4.988 1.513,-7.055 1.026,-2.084 2.458,-3.703 4.297,-4.859 1.84,-1.155 3.89,-1.733 6.153,-1.733 3.597,0 6.372,1.147 8.325,3.442 1.969,2.295 2.954,5.542 2.954,9.741 v 2.393 h -17.261 c 0.179,2.181 0.904,3.906 2.173,5.176 1.286,1.269 2.897,1.904 4.834,1.904 2.718,0 4.932,-1.099 6.641,-3.296 l 3.198,3.052 c -1.058,1.579 -2.474,2.807 -4.248,3.686 -1.758,0.863 -3.735,1.294 -5.933,1.294 z m -0.708,-22.632 c -1.627,0 -2.946,0.57 -3.955,1.709 -0.993,1.14 -1.627,2.727 -1.904,4.761 h 11.304 v -0.439 c -0.131,-1.986 -0.66,-3.483 -1.587,-4.492 -0.928,-1.026 -2.214,-1.539 -3.858,-1.539 z m 26.783,17.896 c 1.481,0 2.709,-0.431 3.686,-1.294 0.977,-0.863 1.497,-1.929 1.563,-3.198 h 5.59 c -0.065,1.644 -0.577,3.182 -1.538,4.614 -0.96,1.416 -2.262,2.539 -3.906,3.369 -1.644,0.83 -3.418,1.245 -5.322,1.245 -3.695,0 -6.625,-1.196 -8.789,-3.589 -2.165,-2.392 -3.247,-5.696 -3.247,-9.912 v -0.61 c 0,-4.02 1.074,-7.235 3.222,-9.644 2.149,-2.425 5.078,-3.637 8.789,-3.637 3.142,0 5.697,0.919 7.666,2.758 1.986,1.823 3.028,4.224 3.125,7.203 h -5.59 c -0.066,-1.514 -0.586,-2.759 -1.563,-3.736 -0.96,-0.976 -2.189,-1.465 -3.686,-1.465 -1.921,0 -3.402,0.7 -4.444,2.1 -1.042,1.384 -1.57,3.491 -1.587,6.323 v 0.952 c 0,2.865 0.513,5.005 1.538,6.421 1.042,1.4 2.539,2.1 4.493,2.1 z M 173.457,8.044 v 6.421 h 4.663 v 4.395 h -4.663 v 14.746 c 0,1.009 0.196,1.741 0.586,2.197 0.407,0.439 1.123,0.659 2.149,0.659 0.683,0 1.375,-0.081 2.075,-0.244 v 4.59 c -1.351,0.374 -2.653,0.561 -3.906,0.561 -4.558,0 -6.836,-2.514 -6.836,-7.544 V 18.86 h -4.346 v -4.395 h 4.346 V 8.044 Z m 15.528,32.837 h -5.933 V 14.465 h 5.933 z M 182.686,7.605 c 0,-0.912 0.285,-1.669 0.854,-2.271 0.586,-0.602 1.416,-0.903 2.491,-0.903 1.074,0 1.904,0.301 2.49,0.903 0.586,0.602 0.879,1.359 0.879,2.271 0,0.895 -0.293,1.644 -0.879,2.246 -0.586,0.586 -1.416,0.879 -2.49,0.879 -1.075,0 -1.905,-0.293 -2.491,-0.879 -0.569,-0.602 -0.854,-1.351 -0.854,-2.246 z m 11.67,19.824 c 0,-2.588 0.513,-4.916 1.538,-6.983 1.025,-2.083 2.466,-3.678 4.321,-4.785 1.856,-1.123 3.988,-1.684 6.397,-1.684 3.564,0 6.453,1.147 8.667,3.442 2.23,2.295 3.434,5.339 3.613,9.131 l 0.024,1.392 c 0,2.604 -0.504,4.931 -1.513,6.982 -0.993,2.051 -2.425,3.638 -4.297,4.761 -1.856,1.123 -4.004,1.684 -6.445,1.684 -3.728,0 -6.714,-1.237 -8.96,-3.711 -2.23,-2.49 -3.345,-5.802 -3.345,-9.936 z m 5.932,0.513 c 0,2.718 0.562,4.85 1.685,6.396 1.123,1.53 2.686,2.295 4.688,2.295 2.001,0 3.556,-0.781 4.663,-2.344 1.123,-1.562 1.684,-3.849 1.684,-6.86 0,-2.669 -0.578,-4.785 -1.733,-6.348 -1.14,-1.562 -2.694,-2.344 -4.663,-2.344 -1.937,0 -3.475,0.774 -4.615,2.32 -1.139,1.53 -1.709,3.825 -1.709,6.885 z m 29.151,-13.477 0.171,3.052 c 1.953,-2.36 4.516,-3.54 7.69,-3.54 5.501,0 8.301,3.149 8.399,9.448 v 17.456 h -5.933 V 23.767 c 0,-1.677 -0.366,-2.914 -1.099,-3.711 -0.716,-0.814 -1.896,-1.221 -3.54,-1.221 -2.392,0 -4.174,1.082 -5.346,3.247 v 18.799 h -5.933 V 14.465 Z m 37.134,19.238 c 0,-1.058 -0.44,-1.863 -1.319,-2.417 -0.862,-0.553 -2.303,-1.041 -4.321,-1.465 -2.018,-0.423 -3.703,-0.96 -5.054,-1.611 -2.962,-1.432 -4.443,-3.507 -4.443,-6.225 0,-2.279 0.96,-4.183 2.881,-5.713 1.92,-1.53 4.362,-2.295 7.324,-2.295 3.158,0 5.705,0.781 7.642,2.343 1.953,1.563 2.929,3.589 2.929,6.08 h -5.932 c 0,-1.14 -0.424,-2.084 -1.27,-2.832 -0.846,-0.765 -1.969,-1.148 -3.369,-1.148 -1.302,0 -2.368,0.301 -3.198,0.903 -0.814,0.603 -1.221,1.408 -1.221,2.417 0,0.912 0.383,1.62 1.148,2.124 0.764,0.505 2.311,1.018 4.638,1.538 2.328,0.505 4.151,1.115 5.469,1.832 1.335,0.699 2.319,1.546 2.954,2.539 0.651,0.992 0.977,2.197 0.977,3.613 0,2.376 -0.985,4.305 -2.955,5.786 -1.969,1.465 -4.549,2.197 -7.739,2.197 -2.164,0 -4.093,-0.39 -5.786,-1.172 -1.693,-0.781 -3.011,-1.855 -3.955,-3.222 -0.944,-1.367 -1.416,-2.84 -1.416,-4.419 h 5.762 c 0.081,1.4 0.61,2.482 1.587,3.247 0.976,0.749 2.27,1.123 3.881,1.123 1.563,0 2.751,-0.293 3.565,-0.879 0.814,-0.602 1.221,-1.383 1.221,-2.344 z"
     fill="#1d1d1d"
     id="path5207"
     style="fill:#d1cfc7;fill-opacity:1" />
  <rect
     x="418.98499"
     y="208.41798"
     width="71"
     height="71"
     rx="8"
     fill="#f2f2f2"
     stroke="#1d1d1d"
     stroke-width="4"
     id="rect5213" />
  <rect
     x="561.67401"
     y="271.38101"
     width="71"
     height="71"
     rx="35.5"
     fill="#f2f2f2"
     stroke="#1d1d1d"
     stroke-width="4"
     id="rect5215" />
  <rect
     x="852.29004"
     y="356.38101"
     width="71"
     height="71"
     rx="35.5"
     fill="#f2f2f2"
     stroke="#1d1d1d"
     stroke-width="4"
     id="rect5217" />
  <rect
     x="561.67401"
     y="444.38101"
     width="71"
     height="71"
     rx="35.5"
     fill="#f2f2f2"
     stroke="#1d1d1d"
     stroke-width="4"
     id="rect5219" />
  <rect
     x="418.98499"
     y="323.38101"
     width="71"
     height="71"
     rx="8"
     fill="#f2f2f2"
     stroke="#1d1d1d"
     stroke-width="4"
     id="rect5221" />
  <rect
     x="706.31598"
     y="271.38101"
     width="71"
     height="71"
     rx="8"
     fill="#f2f2f2"
     stroke="#1d1d1d"
     stroke-width="4"
     id="rect5223" />
  <rect
     x="995.58997"
     y="356.38101"
     width="71"
     height="71"
     rx="8"
     fill="#f2f2f2"
     stroke="#1d1d1d"
     stroke-width="4"
     id="rect5225" />
  <rect
     x="706.31598"
     y="444.38101"
     width="71"
     height="71"
     rx="8"
     fill="#f2f2f2"
     stroke="#1d1d1d"
     stroke-width="4"
     id="rect5227" />
  <rect
     x="418.98499"
     y="444.38101"
     width="71"
     height="71"
     rx="8"
     fill="#f2f2f2"
     stroke="#1d1d1d"
     stroke-width="4"
     id="rect5229" />
  <path
     d="m 486.5,479.881 h 61.017"
     stroke="#1d1d1d"
     stroke-width="3"
     stroke-linecap="square"
     id="path5231" />
  <path
     fill-rule="evenodd"
     clip-rule="evenodd"
     d="m 553.516,479.095 c 0.51,0.4 0.51,1.172 0,1.572 l -4.381,3.443 c -0.656,0.515 -1.618,0.048 -1.618,-0.786 v -6.886 c 0,-0.834 0.962,-1.301 1.618,-0.786 z"
     fill="#1d1d1d"
     id="path5233" />
  <path
     fill-rule="evenodd"
     clip-rule="evenodd"
     d="m 490,483.881 c 2.209,0 4,-1.791 4,-4 0,-2.209 -1.791,-4 -4,-4 -2.209,0 -4,1.791 -4,4 0,2.209 1.791,4 4,4 z"
     fill="#ffffff"
     stroke="#1d1d1d"
     stroke-width="3"
     id="path5235" />
  <path
     d="m 629.5,479.881 h 60.017"
     stroke="#1d1d1d"
     stroke-width="3"
     stroke-linecap="square"
     id="path5237" />
  <path
     fill-rule="evenodd"
     clip-rule="evenodd"
     d="m 695.516,479.095 c 0.51,0.4 0.51,1.172 0,1.572 l -4.381,3.443 c -0.656,0.515 -1.618,0.048 -1.618,-0.786 v -6.886 c 0,-0.834 0.962,-1.301 1.618,-0.786 z"
     fill="#1d1d1d"
     id="path5239" />
  <path
     fill-rule="evenodd"
     clip-rule="evenodd"
     d="m 633,483.881 c 2.209,0 4,-1.791 4,-4 0,-2.209 -1.791,-4 -4,-4 -2.209,0 -4,1.791 -4,4 0,2.209 1.791,4 4,4 z"
     fill="#ffffff"
     stroke="#1d1d1d"
     stroke-width="3"
     id="path5241" />
  <path
     d="m 629.5,306.881 h 60.017"
     stroke="#1d1d1d"
     stroke-width="3"
     stroke-linecap="square"
     id="path5243" />
  <path
     fill-rule="evenodd"
     clip-rule="evenodd"
     d="m 695.516,306.095 c 0.51,0.4 0.51,1.172 0,1.572 l -4.381,3.443 c -0.656,0.515 -1.618,0.048 -1.618,-0.786 v -6.886 c 0,-0.834 0.962,-1.301 1.618,-0.786 z"
     fill="#1d1d1d"
     id="path5245" />
  <path
     fill-rule="evenodd"
     clip-rule="evenodd"
     d="m 633,310.881 c 2.209,0 4,-1.791 4,-4 0,-2.209 -1.791,-4 -4,-4 -2.209,0 -4,1.791 -4,4 0,2.209 1.791,4 4,4 z"
     fill="#ffffff"
     stroke="#1d1d1d"
     stroke-width="3"
     id="path5247" />
  <path
     d="m 919.5,391.881 h 60.02"
     stroke="#1d1d1d"
     stroke-width="3"
     stroke-linecap="square"
     id="path5249" />
  <path
     fill-rule="evenodd"
     clip-rule="evenodd"
     d="m 985.52,391.095 c 0.51,0.4 0.51,1.172 0,1.572 l -4.39,3.443 c -0.65,0.515 -1.61,0.048 -1.61,-0.786 v -6.886 c 0,-0.834 0.96,-1.301 1.61,-0.786 z"
     fill="#1d1d1d"
     id="path5251" />
  <path
     fill-rule="evenodd"
     clip-rule="evenodd"
     d="m 923,395.881 c 2.21,0 4,-1.791 4,-4 0,-2.209 -1.79,-4 -4,-4 -2.21,0 -4,1.791 -4,4 0,2.209 1.79,4 4,4 z"
     fill="#ffffff"
     stroke="#1d1d1d"
     stroke-width="3"
     id="path5253" />
  <path
     d="m 486,243.881 h 21.646 c 5.522,0 10,4.477 10,10 v 44 c 0,5.523 4.477,10 10,10 H 548.5"
     stroke="#1d1d1d"
     stroke-width="3"
     id="path5255" />
  <path
     fill-rule="evenodd"
     clip-rule="evenodd"
     d="m 490,247.881 c 2.209,0 4,-1.791 4,-4 0,-2.209 -1.791,-4 -4,-4 -2.209,0 -4,1.791 -4,4 0,2.209 1.791,4 4,4 z"
     fill="#ffffff"
     stroke="#1d1d1d"
     stroke-width="3"
     id="path5257" />
  <path
     fill-rule="evenodd"
     clip-rule="evenodd"
     d="m 548.118,312.11 c -0.656,0.515 -1.618,0.048 -1.618,-0.786 v -6.886 c 0,-0.834 0.962,-1.301 1.618,-0.786 l 4.381,3.443 c 0.51,0.4 0.51,1.172 0,1.572 z"
     fill="#1d1d1d"
     id="path5259" />
  <path
     d="m 774,306.881 h 22.66 c 5.52,0 10,4.477 10,10 v 62 c 0,5.523 4.48,10 10,10 h 21.84"
     stroke="#1d1d1d"
     stroke-width="3"
     id="path5261" />
  <path
     fill-rule="evenodd"
     clip-rule="evenodd"
     d="m 778,310.881 c 2.21,0 4,-1.791 4,-4 0,-2.209 -1.79,-4 -4,-4 -2.21,0 -4,1.791 -4,4 0,2.209 1.79,4 4,4 z"
     fill="#ffffff"
     stroke="#1d1d1d"
     stroke-width="3"
     id="path5263" />
  <path
     fill-rule="evenodd"
     clip-rule="evenodd"
     d="m 838.12,393.11 c -0.66,0.515 -1.62,0.048 -1.62,-0.786 v -6.886 c 0,-0.834 0.96,-1.301 1.62,-0.786 l 4.38,3.443 c 0.51,0.4 0.51,1.172 0,1.572 z"
     fill="#1d1d1d"
     id="path5265" />
  <path
     d="m 486,360.881 h 21.646 c 5.522,0 10,-4.477 10,-10 v -33 c 0,-5.523 4.477,-10 10,-10 H 548.5"
     stroke="#1d1d1d"
     stroke-width="3"
     id="path5267" />
  <path
     fill-rule="evenodd"
     clip-rule="evenodd"
     d="m 490,356.881 c 2.209,0 4,1.791 4,4 0,2.209 -1.791,4 -4,4 -2.209,0 -4,-1.791 -4,-4 0,-2.209 1.791,-4 4,-4 z"
     fill="#ffffff"
     stroke="#1d1d1d"
     stroke-width="3"
     id="path5269" />
  <path
     fill-rule="evenodd"
     clip-rule="evenodd"
     d="m 548.118,303.652 c -0.656,-0.515 -1.618,-0.048 -1.618,0.786 v 6.886 c 0,0.834 0.962,1.301 1.618,0.786 l 4.381,-3.443 c 0.51,-0.4 0.51,-1.172 0,-1.572 z"
     fill="#1d1d1d"
     id="path5271" />
  <path
     d="m 774,479.881 h 22.66 c 5.52,0 10,-4.477 10,-10 v -71 c 0,-5.523 4.48,-10 10,-10 h 21.84"
     stroke="#1d1d1d"
     stroke-width="3"
     id="path5273" />
  <path
     fill-rule="evenodd"
     clip-rule="evenodd"
     d="m 778,475.881 c 2.21,0 4,1.791 4,4 0,2.209 -1.79,4 -4,4 -2.21,0 -4,-1.791 -4,-4 0,-2.209 1.79,-4 4,-4 z"
     fill="#ffffff"
     stroke="#1d1d1d"
     stroke-width="3"
     id="path5275" />
  <path
     fill-rule="evenodd"
     clip-rule="evenodd"
     d="m 838.12,384.652 c -0.66,-0.515 -1.62,-0.048 -1.62,0.786 v 6.886 c 0,0.834 0.96,1.301 1.62,0.786 l 4.38,-3.443 c 0.51,-0.4 0.51,-1.172 0,-1.572 z"
     fill="#1d1d1d"
     id="path5277" />
  <rect
     x="2"
     y="152.881"
     width="308"
     height="72"
     rx="3"
     fill="#e2e4f6"
     stroke="#0135b4"
     stroke-width="4"
     id="rect5279" />
  <path
     d="m 92.991,197.881 v -18.484 h 5.687 c 1.625,0 3.077,0.368 4.355,1.104 1.286,0.728 2.289,1.769 3.008,3.123 0.72,1.346 1.079,2.878 1.079,4.596 v 0.85 c 0,1.719 -0.355,3.246 -1.066,4.583 -0.702,1.338 -1.697,2.374 -2.983,3.111 -1.287,0.736 -2.738,1.109 -4.355,1.117 z m 3.808,-15.399 v 12.339 h 1.841 c 1.49,0 2.628,-0.486 3.415,-1.46 0.787,-0.973 1.189,-2.365 1.206,-4.176 v -0.978 c 0,-1.879 -0.389,-3.301 -1.168,-4.265 -0.779,-0.974 -1.917,-1.46 -3.415,-1.46 z m 21.004,15.399 c -0.169,-0.33 -0.292,-0.741 -0.368,-1.231 -0.889,0.99 -2.044,1.485 -3.466,1.485 -1.346,0 -2.463,-0.389 -3.352,-1.168 -0.88,-0.779 -1.32,-1.76 -1.32,-2.945 0,-1.456 0.537,-2.573 1.612,-3.352 1.084,-0.779 2.645,-1.172 4.685,-1.181 h 1.688 v -0.787 c 0,-0.634 -0.165,-1.142 -0.495,-1.523 -0.321,-0.381 -0.833,-0.571 -1.536,-0.571 -0.618,0 -1.104,0.148 -1.46,0.444 -0.347,0.296 -0.52,0.702 -0.52,1.219 h -3.669 c 0,-0.796 0.245,-1.532 0.736,-2.209 0.491,-0.677 1.185,-1.206 2.082,-1.587 0.897,-0.39 1.904,-0.584 3.021,-0.584 1.693,0 3.035,0.427 4.025,1.282 0.999,0.846 1.498,2.04 1.498,3.58 v 5.954 c 0.008,1.304 0.19,2.29 0.546,2.958 v 0.216 z m -3.034,-2.552 c 0.541,0 1.041,-0.118 1.498,-0.355 0.457,-0.246 0.795,-0.572 1.015,-0.978 v -2.361 h -1.371 c -1.836,0 -2.814,0.635 -2.932,1.904 l -0.013,0.216 c 0,0.457 0.161,0.834 0.482,1.13 0.322,0.296 0.762,0.444 1.321,0.444 z m 16.636,-1.244 c 0,-0.448 -0.224,-0.8 -0.673,-1.054 -0.44,-0.262 -1.151,-0.495 -2.133,-0.698 -3.267,-0.685 -4.9,-2.073 -4.9,-4.164 0,-1.219 0.504,-2.234 1.511,-3.047 1.015,-0.821 2.34,-1.231 3.973,-1.231 1.744,0 3.136,0.41 4.177,1.231 1.05,0.821 1.574,1.888 1.574,3.199 h -3.669 c 0,-0.524 -0.169,-0.956 -0.507,-1.294 -0.339,-0.347 -0.868,-0.521 -1.587,-0.521 -0.618,0 -1.096,0.14 -1.435,0.419 -0.338,0.279 -0.508,0.635 -0.508,1.066 0,0.407 0.191,0.737 0.572,0.991 0.389,0.245 1.041,0.461 1.955,0.647 0.914,0.178 1.684,0.381 2.31,0.609 1.938,0.711 2.907,1.943 2.907,3.695 0,1.252 -0.537,2.268 -1.612,3.047 -1.075,0.77 -2.463,1.155 -4.164,1.155 -1.151,0 -2.175,-0.203 -3.072,-0.609 -0.889,-0.415 -1.587,-0.978 -2.095,-1.689 -0.508,-0.719 -0.762,-1.494 -0.762,-2.323 h 3.479 c 0.034,0.652 0.275,1.151 0.724,1.498 0.448,0.347 1.049,0.52 1.802,0.52 0.703,0 1.232,-0.131 1.587,-0.393 0.364,-0.271 0.546,-0.622 0.546,-1.054 z m 11.114,-1.714 -1.32,1.321 v 4.189 h -3.669 v -19.5 h 3.669 v 10.804 l 0.711,-0.914 3.516,-4.126 h 4.406 l -4.964,5.725 5.395,8.011 h -4.215 z m 26.418,1.701 h -6.678 l -1.27,3.809 h -4.05 l 6.881,-18.484 h 3.53 l 6.919,18.484 h -4.05 z m -5.65,-3.085 h 4.621 l -2.323,-6.918 z m 20.369,-3.402 c -0.499,-0.068 -0.939,-0.101 -1.32,-0.101 -1.388,0 -2.298,0.469 -2.73,1.409 v 8.988 h -3.669 v -13.736 h 3.466 l 0.102,1.637 c 0.736,-1.261 1.756,-1.891 3.059,-1.891 0.406,0 0.787,0.055 1.143,0.165 z m 9.679,0 c -0.499,-0.068 -0.939,-0.101 -1.32,-0.101 -1.388,0 -2.298,0.469 -2.729,1.409 v 8.988 h -3.669 v -13.736 h 3.465 l 0.102,1.637 c 0.736,-1.261 1.756,-1.891 3.06,-1.891 0.406,0 0.787,0.055 1.142,0.165 z m 9.54,10.296 c -0.169,-0.33 -0.292,-0.741 -0.368,-1.231 -0.889,0.99 -2.044,1.485 -3.466,1.485 -1.345,0 -2.463,-0.389 -3.351,-1.168 -0.881,-0.779 -1.321,-1.76 -1.321,-2.945 0,-1.456 0.538,-2.573 1.613,-3.352 1.083,-0.779 2.645,-1.172 4.684,-1.181 h 1.689 v -0.787 c 0,-0.634 -0.165,-1.142 -0.495,-1.523 -0.322,-0.381 -0.834,-0.571 -1.537,-0.571 -0.617,0 -1.104,0.148 -1.46,0.444 -0.347,0.296 -0.52,0.702 -0.52,1.219 h -3.669 c 0,-0.796 0.245,-1.532 0.736,-2.209 0.491,-0.677 1.185,-1.206 2.082,-1.587 0.898,-0.39 1.905,-0.584 3.022,-0.584 1.693,0 3.034,0.427 4.024,1.282 0.999,0.846 1.498,2.04 1.498,3.58 v 5.954 c 0.009,1.304 0.191,2.29 0.546,2.958 v 0.216 z m -3.034,-2.552 c 0.542,0 1.041,-0.118 1.498,-0.355 0.457,-0.246 0.796,-0.572 1.016,-0.978 v -2.361 h -1.371 c -1.837,0 -2.815,0.635 -2.933,1.904 l -0.013,0.216 c 0,0.457 0.161,0.834 0.483,1.13 0.321,0.296 0.761,0.444 1.32,0.444 z m 14.123,-2.64 2.539,-8.544 h 3.935 l -5.522,15.869 -0.305,0.723 c -0.821,1.795 -2.175,2.692 -4.062,2.692 -0.533,0 -1.075,-0.081 -1.625,-0.241 v -2.781 l 0.558,0.013 c 0.694,0 1.211,-0.106 1.549,-0.317 0.347,-0.212 0.618,-0.563 0.813,-1.054 l 0.431,-1.13 -4.811,-13.774 h 3.948 z"
     fill="#1d1d1d"
     id="path5281" />
  <rect
     x="1148.3101"
     y="258.88101"
     width="308"
     height="128"
     rx="3"
     fill="#fff7e7"
     stroke="#fe6939"
     stroke-width="4"
     id="rect5283" />
  <path
     d="m 1221.01,299.031 c 0,-0.719 -0.25,-1.269 -0.76,-1.65 -0.51,-0.389 -1.42,-0.796 -2.74,-1.219 -1.32,-0.431 -2.37,-0.855 -3.14,-1.269 -2.09,-1.134 -3.14,-2.662 -3.14,-4.583 0,-0.999 0.28,-1.888 0.83,-2.666 0.57,-0.787 1.38,-1.401 2.43,-1.841 1.06,-0.44 2.24,-0.66 3.55,-0.66 1.32,0 2.5,0.241 3.53,0.723 1.04,0.474 1.83,1.147 2.4,2.019 0.58,0.872 0.87,1.862 0.87,2.971 h -3.81 c 0,-0.847 -0.27,-1.503 -0.8,-1.968 -0.54,-0.474 -1.29,-0.711 -2.25,-0.711 -0.93,0 -1.65,0.199 -2.17,0.597 -0.52,0.389 -0.78,0.905 -0.78,1.548 0,0.601 0.3,1.105 0.91,1.511 0.61,0.406 1.5,0.787 2.67,1.143 2.17,0.651 3.75,1.46 4.74,2.425 0.99,0.964 1.49,2.166 1.49,3.605 0,1.6 -0.61,2.856 -1.82,3.771 -1.21,0.905 -2.84,1.358 -4.89,1.358 -1.42,0 -2.71,-0.258 -3.88,-0.775 -1.17,-0.524 -2.06,-1.239 -2.68,-2.145 -0.61,-0.906 -0.92,-1.955 -0.92,-3.148 h 3.83 c 0,2.039 1.21,3.059 3.65,3.059 0.91,0 1.61,-0.182 2.12,-0.546 0.51,-0.372 0.76,-0.888 0.76,-1.549 z m 10.23,4.85 h -3.68 v -13.736 h 3.68 z m -3.9,-17.291 c 0,-0.55 0.18,-1.003 0.55,-1.358 0.37,-0.356 0.87,-0.534 1.51,-0.534 0.62,0 1.12,0.178 1.5,0.534 0.37,0.355 0.56,0.808 0.56,1.358 0,0.559 -0.2,1.016 -0.58,1.371 -0.37,0.356 -0.86,0.533 -1.48,0.533 -0.62,0 -1.12,-0.177 -1.5,-0.533 -0.37,-0.355 -0.56,-0.812 -0.56,-1.371 z m 10.49,3.555 0.12,1.587 c 0.98,-1.228 2.3,-1.841 3.95,-1.841 1.45,0 2.54,0.427 3.25,1.282 0.71,0.855 1.07,2.133 1.09,3.834 v 8.874 h -3.67 v -8.785 c 0,-0.779 -0.17,-1.342 -0.51,-1.689 -0.34,-0.355 -0.9,-0.533 -1.69,-0.533 -1.03,0 -1.8,0.44 -2.32,1.32 v 9.687 h -3.67 v -13.736 z m 10.85,6.766 c 0,-2.107 0.5,-3.804 1.5,-5.091 1.01,-1.286 2.36,-1.929 4.06,-1.929 1.51,0 2.68,0.516 3.52,1.549 l 0.15,-1.295 h 3.33 v 13.279 c 0,1.202 -0.28,2.247 -0.83,3.136 -0.54,0.888 -1.31,1.565 -2.3,2.031 -0.99,0.465 -2.15,0.698 -3.47,0.698 -1.01,0 -1.99,-0.203 -2.95,-0.609 -0.96,-0.398 -1.68,-0.914 -2.17,-1.549 l 1.62,-2.234 c 0.92,1.024 2.03,1.536 3.33,1.536 0.97,0 1.73,-0.263 2.27,-0.787 0.54,-0.517 0.82,-1.253 0.82,-2.209 V 302.7 c -0.85,0.957 -1.96,1.435 -3.34,1.435 -1.65,0 -2.99,-0.643 -4.02,-1.93 -1.01,-1.295 -1.52,-3.009 -1.52,-5.141 z m 3.67,0.267 c 0,1.244 0.25,2.222 0.75,2.932 0.5,0.703 1.18,1.054 2.06,1.054 1.11,0 1.91,-0.419 2.4,-1.257 v -5.776 c -0.5,-0.838 -1.29,-1.257 -2.38,-1.257 -0.88,0 -1.57,0.36 -2.08,1.079 -0.5,0.72 -0.75,1.795 -0.75,3.225 z m 15.77,6.703 h -3.68 v -19.5 h 3.68 z m 9.54,0.254 c -2.01,0 -3.65,-0.618 -4.92,-1.854 -1.26,-1.235 -1.89,-2.881 -1.89,-4.938 v -0.356 c 0,-1.379 0.26,-2.611 0.8,-3.694 0.53,-1.092 1.28,-1.93 2.26,-2.514 0.98,-0.592 2.09,-0.888 3.35,-0.888 1.88,0 3.35,0.592 4.43,1.777 1.08,1.185 1.62,2.865 1.62,5.04 v 1.498 h -8.74 c 0.11,0.897 0.47,1.617 1.06,2.158 0.6,0.542 1.36,0.813 2.27,0.813 1.42,0 2.52,-0.512 3.32,-1.536 l 1.8,2.018 c -0.55,0.779 -1.29,1.388 -2.23,1.828 -0.94,0.432 -1.98,0.648 -3.13,0.648 z m -0.42,-11.274 c -0.72,0 -1.32,0.246 -1.77,0.737 -0.45,0.491 -0.74,1.193 -0.87,2.107 h 5.11 v -0.292 c -0.02,-0.812 -0.24,-1.439 -0.66,-1.879 -0.43,-0.448 -1.03,-0.673 -1.81,-0.673 z m 15.49,4.583 h -7.15 v -2.958 h 7.15 z m 6.56,-7.299 0.12,1.536 c 0.97,-1.194 2.29,-1.79 3.95,-1.79 1.77,0 2.98,0.698 3.64,2.094 0.97,-1.396 2.34,-2.094 4.13,-2.094 1.49,0 2.59,0.436 3.32,1.307 0.73,0.864 1.09,2.167 1.09,3.911 v 8.772 h -3.68 v -8.76 c 0,-0.778 -0.15,-1.345 -0.45,-1.701 -0.31,-0.364 -0.85,-0.546 -1.62,-0.546 -1.1,0 -1.86,0.525 -2.28,1.574 l 0.01,9.433 h -3.67 v -8.747 c 0,-0.796 -0.15,-1.371 -0.47,-1.727 -0.31,-0.355 -0.84,-0.533 -1.6,-0.533 -1.04,0 -1.79,0.432 -2.26,1.295 v 9.712 h -3.67 v -13.736 z m 27.23,13.736 c -0.17,-0.33 -0.29,-0.741 -0.37,-1.231 -0.89,0.99 -2.04,1.485 -3.47,1.485 -1.34,0 -2.46,-0.389 -3.35,-1.168 -0.88,-0.779 -1.32,-1.76 -1.32,-2.945 0,-1.456 0.54,-2.573 1.62,-3.352 1.08,-0.779 2.64,-1.172 4.68,-1.181 h 1.69 v -0.787 c 0,-0.634 -0.17,-1.142 -0.5,-1.523 -0.32,-0.381 -0.83,-0.571 -1.53,-0.571 -0.62,0 -1.11,0.148 -1.46,0.444 -0.35,0.296 -0.52,0.702 -0.52,1.219 h -3.67 c 0,-0.796 0.24,-1.532 0.73,-2.209 0.49,-0.677 1.19,-1.206 2.09,-1.587 0.89,-0.39 1.9,-0.584 3.02,-0.584 1.69,0 3.03,0.427 4.02,1.282 1,0.846 1.5,2.04 1.5,3.58 v 5.954 c 0.01,1.304 0.19,2.29 0.55,2.958 v 0.216 z m -3.04,-2.552 c 0.55,0 1.05,-0.118 1.5,-0.355 0.46,-0.246 0.8,-0.572 1.02,-0.978 v -2.361 h -1.37 c -1.84,0 -2.82,0.635 -2.94,1.904 l -0.01,0.216 c 0,0.457 0.16,0.834 0.48,1.13 0.33,0.296 0.77,0.444 1.32,0.444 z m 14.91,-0.152 c 0.68,0 1.23,-0.186 1.65,-0.559 0.43,-0.372 0.65,-0.867 0.67,-1.485 h 3.44 c -0.01,0.931 -0.27,1.786 -0.77,2.564 -0.5,0.771 -1.18,1.372 -2.05,1.803 -0.87,0.423 -1.82,0.635 -2.87,0.635 -1.97,0 -3.51,-0.622 -4.65,-1.866 -1.13,-1.253 -1.7,-2.979 -1.7,-5.18 v -0.241 c 0,-2.116 0.56,-3.805 1.69,-5.066 1.12,-1.261 2.67,-1.891 4.63,-1.891 1.72,0 3.1,0.491 4.13,1.472 1.04,0.974 1.57,2.273 1.59,3.898 h -3.44 c -0.02,-0.711 -0.24,-1.287 -0.67,-1.727 -0.42,-0.448 -0.98,-0.673 -1.67,-0.673 -0.86,0 -1.5,0.314 -1.94,0.94 -0.43,0.618 -0.65,1.625 -0.65,3.021 v 0.381 c 0,1.414 0.22,2.429 0.65,3.047 0.43,0.618 1.08,0.927 1.96,0.927 z m 11.61,-9.534 c 0.98,-1.168 2.2,-1.752 3.67,-1.752 2.98,0 4.49,1.731 4.53,5.192 v 8.798 h -3.66 v -8.696 c 0,-0.787 -0.17,-1.367 -0.51,-1.74 -0.34,-0.38 -0.9,-0.571 -1.69,-0.571 -1.08,0 -1.85,0.415 -2.34,1.244 v 9.763 h -3.67 v -19.5 h 3.67 z m 15.03,12.238 h -3.68 v -13.736 h 3.68 z m -3.9,-17.291 c 0,-0.55 0.18,-1.003 0.55,-1.358 0.37,-0.356 0.87,-0.534 1.51,-0.534 0.62,0 1.12,0.178 1.49,0.534 0.38,0.355 0.56,0.808 0.56,1.358 0,0.559 -0.19,1.016 -0.57,1.371 -0.37,0.356 -0.87,0.533 -1.48,0.533 -0.62,0 -1.12,-0.177 -1.5,-0.533 -0.37,-0.355 -0.56,-0.812 -0.56,-1.371 z m 10.49,3.555 0.12,1.587 c 0.98,-1.228 2.29,-1.841 3.94,-1.841 1.46,0 2.54,0.427 3.25,1.282 0.72,0.855 1.08,2.133 1.1,3.834 v 8.874 h -3.67 v -8.785 c 0,-0.779 -0.17,-1.342 -0.51,-1.689 -0.34,-0.355 -0.9,-0.533 -1.69,-0.533 -1.03,0 -1.81,0.44 -2.32,1.32 v 9.687 h -3.67 v -13.736 z m 17.71,13.99 c -2.02,0 -3.66,-0.618 -4.93,-1.854 -1.26,-1.235 -1.89,-2.881 -1.89,-4.938 v -0.356 c 0,-1.379 0.26,-2.611 0.8,-3.694 0.53,-1.092 1.28,-1.93 2.26,-2.514 0.98,-0.592 2.1,-0.888 3.35,-0.888 1.88,0 3.35,0.592 4.43,1.777 1.08,1.185 1.62,2.865 1.62,5.04 v 1.498 h -8.74 c 0.12,0.897 0.47,1.617 1.06,2.158 0.6,0.542 1.36,0.813 2.28,0.813 1.41,0 2.51,-0.512 3.31,-1.536 l 1.8,2.018 c -0.55,0.779 -1.29,1.388 -2.23,1.828 -0.94,0.432 -1.98,0.648 -3.12,0.648 z m -0.42,-11.274 c -0.73,0 -1.32,0.246 -1.78,0.737 -0.45,0.491 -0.74,1.193 -0.86,2.107 h 5.1 v -0.292 c -0.02,-0.812 -0.24,-1.439 -0.66,-1.879 -0.42,-0.448 -1.03,-0.673 -1.8,-0.673 z m -204.93,31.504 c 0,-1.938 0.26,-3.783 0.77,-5.535 0.52,-1.752 1.28,-3.301 2.29,-4.646 1,-1.354 2.1,-2.294 3.27,-2.819 l 0.71,1.981 c -1.23,0.914 -2.2,2.327 -2.89,4.24 -0.69,1.913 -1.04,4.147 -1.04,6.703 v 0.394 c 0,2.564 0.34,4.807 1.03,6.728 0.68,1.921 1.65,3.356 2.9,4.304 l -0.71,1.942 c -1.15,-0.516 -2.22,-1.43 -3.22,-2.742 -0.99,-1.303 -1.75,-2.81 -2.27,-4.519 -0.53,-1.71 -0.81,-3.496 -0.84,-5.358 z m 13.55,-9.597 v 3.377 h 2.35 v 2.691 h -2.35 v 6.856 c 0,0.507 0.1,0.871 0.29,1.091 0.2,0.22 0.57,0.33 1.12,0.33 0.4,0 0.76,-0.029 1.08,-0.088 v 2.78 c -0.72,0.22 -1.46,0.33 -2.22,0.33 -2.58,0 -3.89,-1.299 -3.94,-3.898 v -7.401 h -2.01 v -2.691 h 2.01 v -3.377 z m 8.16,4.875 c 0.97,-1.168 2.19,-1.752 3.66,-1.752 2.98,0 4.49,1.731 4.54,5.192 v 8.798 h -3.67 v -8.696 c 0,-0.787 -0.17,-1.367 -0.51,-1.74 -0.34,-0.38 -0.9,-0.571 -1.69,-0.571 -1.07,0 -1.85,0.415 -2.33,1.244 v 9.763 h -3.67 v -19.5 h 3.67 z m 18.87,1.942 c -0.5,-0.068 -0.94,-0.101 -1.32,-0.101 -1.39,0 -2.3,0.469 -2.73,1.409 v 8.988 h -3.67 v -13.736 h 3.46 l 0.1,1.637 c 0.74,-1.261 1.76,-1.891 3.06,-1.891 0.41,0 0.79,0.055 1.15,0.165 z m 8.03,10.55 c -2.02,0 -3.66,-0.618 -4.93,-1.854 -1.26,-1.235 -1.89,-2.881 -1.89,-4.938 v -0.356 c 0,-1.379 0.26,-2.611 0.8,-3.694 0.53,-1.092 1.28,-1.93 2.26,-2.514 0.98,-0.592 2.1,-0.888 3.35,-0.888 1.88,0 3.35,0.592 4.43,1.777 1.08,1.185 1.62,2.865 1.62,5.04 v 1.498 h -8.74 c 0.12,0.897 0.47,1.617 1.06,2.158 0.6,0.542 1.36,0.813 2.28,0.813 1.41,0 2.51,-0.512 3.31,-1.536 l 1.8,2.018 c -0.55,0.779 -1.29,1.388 -2.23,1.828 -0.94,0.432 -1.98,0.648 -3.12,0.648 z m -0.42,-11.274 c -0.73,0 -1.32,0.246 -1.78,0.737 -0.45,0.491 -0.74,1.193 -0.86,2.107 h 5.1 v -0.292 c -0.02,-0.812 -0.24,-1.439 -0.66,-1.879 -0.42,-0.448 -1.03,-0.673 -1.8,-0.673 z m 16.3,11.02 c -0.17,-0.33 -0.29,-0.741 -0.37,-1.231 -0.88,0.99 -2.04,1.485 -3.46,1.485 -1.35,0 -2.46,-0.389 -3.35,-1.168 -0.88,-0.779 -1.32,-1.76 -1.32,-2.945 0,-1.456 0.53,-2.573 1.61,-3.352 1.08,-0.779 2.64,-1.172 4.68,-1.181 h 1.69 v -0.787 c 0,-0.634 -0.16,-1.142 -0.49,-1.523 -0.32,-0.381 -0.84,-0.571 -1.54,-0.571 -0.62,0 -1.1,0.148 -1.46,0.444 -0.35,0.296 -0.52,0.702 -0.52,1.219 h -3.67 c 0,-0.796 0.25,-1.532 0.74,-2.209 0.49,-0.677 1.18,-1.206 2.08,-1.587 0.9,-0.39 1.9,-0.584 3.02,-0.584 1.69,0 3.04,0.427 4.03,1.282 0.99,0.846 1.49,2.04 1.49,3.58 v 5.954 c 0.01,1.304 0.19,2.29 0.55,2.958 v 0.216 z m -3.03,-2.552 c 0.54,0 1.04,-0.118 1.5,-0.355 0.45,-0.246 0.79,-0.572 1.01,-0.978 v -2.361 h -1.37 c -1.84,0 -2.81,0.635 -2.93,1.904 l -0.01,0.216 c 0,0.457 0.16,0.834 0.48,1.13 0.32,0.296 0.76,0.444 1.32,0.444 z m 8.62,-4.418 c 0,-2.141 0.48,-3.846 1.44,-5.116 0.96,-1.269 2.28,-1.904 3.95,-1.904 1.33,0 2.44,0.499 3.31,1.498 v -7.008 h 3.68 v 19.5 h -3.31 l -0.18,-1.46 c -0.91,1.143 -2.09,1.714 -3.53,1.714 -1.62,0 -2.91,-0.635 -3.9,-1.904 -0.97,-1.278 -1.46,-3.051 -1.46,-5.32 z m 3.67,0.267 c 0,1.286 0.23,2.272 0.68,2.958 0.44,0.685 1.1,1.028 1.95,1.028 1.14,0 1.93,-0.478 2.4,-1.434 v -5.421 c -0.46,-0.957 -1.25,-1.435 -2.37,-1.435 -1.77,0 -2.66,1.435 -2.66,4.304 z m 19.18,2.907 c 0,-0.448 -0.23,-0.8 -0.67,-1.054 -0.44,-0.262 -1.16,-0.495 -2.14,-0.698 -3.26,-0.685 -4.9,-2.073 -4.9,-4.164 0,-1.219 0.51,-2.234 1.51,-3.047 1.02,-0.821 2.34,-1.231 3.98,-1.231 1.74,0 3.13,0.41 4.17,1.231 1.05,0.821 1.58,1.888 1.58,3.199 h -3.67 c 0,-0.524 -0.17,-0.956 -0.51,-1.294 -0.34,-0.347 -0.87,-0.521 -1.59,-0.521 -0.61,0 -1.09,0.14 -1.43,0.419 -0.34,0.279 -0.51,0.635 -0.51,1.066 0,0.407 0.19,0.737 0.57,0.991 0.39,0.245 1.04,0.461 1.96,0.647 0.91,0.178 1.68,0.381 2.31,0.609 1.94,0.711 2.91,1.943 2.91,3.695 0,1.252 -0.54,2.268 -1.62,3.047 -1.07,0.77 -2.46,1.155 -4.16,1.155 -1.15,0 -2.18,-0.203 -3.07,-0.609 -0.89,-0.415 -1.59,-0.978 -2.1,-1.689 -0.51,-0.719 -0.76,-1.494 -0.76,-2.323 h 3.48 c 0.03,0.652 0.27,1.151 0.72,1.498 0.45,0.347 1.05,0.52 1.81,0.52 0.7,0 1.23,-0.131 1.58,-0.393 0.37,-0.271 0.55,-0.622 0.55,-1.054 z m 7.08,8.43 -1.92,-1.003 0.46,-0.825 c 0.56,-1.033 0.85,-2.061 0.87,-3.085 v -2.844 h 3.1 l -0.01,2.539 c -0.01,0.939 -0.25,1.887 -0.71,2.844 -0.47,0.956 -1.07,1.747 -1.79,2.374 z m 24.6,-11.375 c 0,2.116 -0.49,3.813 -1.45,5.091 -0.96,1.269 -2.25,1.904 -3.88,1.904 -1.39,0 -2.51,-0.483 -3.37,-1.447 v 6.474 h -3.67 v -19.017 h 3.4 l 0.13,1.345 c 0.89,-1.066 2.05,-1.599 3.48,-1.599 1.69,0 3.01,0.626 3.95,1.879 0.94,1.252 1.41,2.979 1.41,5.179 z m -3.67,-0.267 c 0,-1.278 -0.23,-2.264 -0.69,-2.958 -0.45,-0.694 -1.1,-1.041 -1.96,-1.041 -1.16,0 -1.95,0.44 -2.38,1.32 v 5.625 c 0.45,0.905 1.25,1.358 2.4,1.358 1.75,0 2.63,-1.435 2.63,-4.304 z m 13.85,-3.288 c -0.49,-0.068 -0.93,-0.101 -1.32,-0.101 -1.38,0 -2.29,0.469 -2.73,1.409 v 8.988 h -3.66 v -13.736 h 3.46 l 0.1,1.637 c 0.74,-1.261 1.76,-1.891 3.06,-1.891 0.41,0 0.79,0.055 1.15,0.165 z m 0.94,3.301 c 0,-1.363 0.26,-2.577 0.78,-3.644 0.53,-1.066 1.28,-1.891 2.26,-2.475 0.99,-0.584 2.14,-0.876 3.44,-0.876 1.86,0 3.37,0.567 4.54,1.701 1.17,1.134 1.83,2.674 1.96,4.621 l 0.03,0.939 c 0,2.108 -0.59,3.801 -1.76,5.079 -1.18,1.269 -2.76,1.904 -4.74,1.904 -1.98,0 -3.56,-0.635 -4.75,-1.904 -1.17,-1.27 -1.76,-2.996 -1.76,-5.18 z m 3.67,0.266 c 0,1.304 0.24,2.303 0.73,2.997 0.49,0.685 1.2,1.028 2.11,1.028 0.89,0 1.58,-0.339 2.08,-1.016 0.5,-0.685 0.75,-1.777 0.75,-3.275 0,-1.278 -0.25,-2.268 -0.75,-2.971 -0.5,-0.702 -1.2,-1.054 -2.11,-1.054 -0.89,0 -1.59,0.352 -2.08,1.054 -0.49,0.694 -0.73,1.773 -0.73,3.237 z m 17.5,4.025 c 0.67,0 1.22,-0.186 1.65,-0.559 0.42,-0.372 0.64,-0.867 0.66,-1.485 h 3.44 c -0.01,0.931 -0.27,1.786 -0.77,2.564 -0.49,0.771 -1.18,1.372 -2.05,1.803 -0.86,0.423 -1.82,0.635 -2.87,0.635 -1.96,0 -3.51,-0.622 -4.65,-1.866 -1.13,-1.253 -1.7,-2.979 -1.7,-5.18 v -0.241 c 0,-2.116 0.56,-3.805 1.69,-5.066 1.13,-1.261 2.67,-1.891 4.63,-1.891 1.72,0 3.1,0.491 4.13,1.472 1.04,0.974 1.57,2.273 1.59,3.898 h -3.44 c -0.02,-0.711 -0.24,-1.287 -0.66,-1.727 -0.43,-0.448 -0.99,-0.673 -1.68,-0.673 -0.85,0 -1.5,0.314 -1.94,0.94 -0.43,0.618 -0.65,1.625 -0.65,3.021 v 0.381 c 0,1.414 0.22,2.429 0.65,3.047 0.43,0.618 1.09,0.927 1.97,0.927 z m 14.35,2.958 c -2.02,0 -3.66,-0.618 -4.93,-1.854 -1.26,-1.235 -1.89,-2.881 -1.89,-4.938 v -0.356 c 0,-1.379 0.27,-2.611 0.8,-3.694 0.53,-1.092 1.29,-1.93 2.26,-2.514 0.98,-0.592 2.1,-0.888 3.35,-0.888 1.88,0 3.36,0.592 4.43,1.777 1.08,1.185 1.63,2.865 1.63,5.04 v 1.498 h -8.75 c 0.12,0.897 0.47,1.617 1.07,2.158 0.6,0.542 1.35,0.813 2.27,0.813 1.41,0 2.52,-0.512 3.31,-1.536 l 1.8,2.018 c -0.55,0.779 -1.29,1.388 -2.23,1.828 -0.94,0.432 -1.98,0.648 -3.12,0.648 z m -0.42,-11.274 c -0.73,0 -1.32,0.246 -1.78,0.737 -0.45,0.491 -0.74,1.193 -0.86,2.107 h 5.1 v -0.292 c -0.02,-0.812 -0.24,-1.439 -0.66,-1.879 -0.42,-0.448 -1.02,-0.673 -1.8,-0.673 z m 15.78,7.224 c 0,-0.448 -0.22,-0.8 -0.67,-1.054 -0.44,-0.262 -1.15,-0.495 -2.13,-0.698 -3.27,-0.685 -4.9,-2.073 -4.9,-4.164 0,-1.219 0.5,-2.234 1.51,-3.047 1.01,-0.821 2.34,-1.231 3.97,-1.231 1.75,0 3.14,0.41 4.18,1.231 1.05,0.821 1.57,1.888 1.57,3.199 h -3.67 c 0,-0.524 -0.17,-0.956 -0.5,-1.294 -0.34,-0.347 -0.87,-0.521 -1.59,-0.521 -0.62,0 -1.1,0.14 -1.44,0.419 -0.33,0.279 -0.5,0.635 -0.5,1.066 0,0.407 0.19,0.737 0.57,0.991 0.39,0.245 1.04,0.461 1.95,0.647 0.92,0.178 1.69,0.381 2.31,0.609 1.94,0.711 2.91,1.943 2.91,3.695 0,1.252 -0.54,2.268 -1.61,3.047 -1.08,0.77 -2.46,1.155 -4.17,1.155 -1.15,0 -2.17,-0.203 -3.07,-0.609 -0.89,-0.415 -1.58,-0.978 -2.09,-1.689 -0.51,-0.719 -0.76,-1.494 -0.76,-2.323 h 3.47 c 0.04,0.652 0.28,1.151 0.73,1.498 0.45,0.347 1.05,0.52 1.8,0.52 0.7,0 1.23,-0.131 1.59,-0.393 0.36,-0.271 0.54,-0.622 0.54,-1.054 z m 13.57,0 c 0,-0.448 -0.23,-0.8 -0.67,-1.054 -0.44,-0.262 -1.16,-0.495 -2.14,-0.698 -3.26,-0.685 -4.9,-2.073 -4.9,-4.164 0,-1.219 0.51,-2.234 1.51,-3.047 1.02,-0.821 2.34,-1.231 3.98,-1.231 1.74,0 3.13,0.41 4.17,1.231 1.05,0.821 1.58,1.888 1.58,3.199 h -3.67 c 0,-0.524 -0.17,-0.956 -0.51,-1.294 -0.34,-0.347 -0.87,-0.521 -1.59,-0.521 -0.61,0 -1.09,0.14 -1.43,0.419 -0.34,0.279 -0.51,0.635 -0.51,1.066 0,0.407 0.19,0.737 0.57,0.991 0.39,0.245 1.04,0.461 1.96,0.647 0.91,0.178 1.68,0.381 2.31,0.609 1.94,0.711 2.91,1.943 2.91,3.695 0,1.252 -0.54,2.268 -1.62,3.047 -1.07,0.77 -2.46,1.155 -4.16,1.155 -1.15,0 -2.18,-0.203 -3.07,-0.609 -0.89,-0.415 -1.59,-0.978 -2.1,-1.689 -0.51,-0.719 -0.76,-1.494 -0.76,-2.323 h 3.48 c 0.03,0.652 0.27,1.151 0.72,1.498 0.45,0.347 1.05,0.52 1.81,0.52 0.7,0 1.23,-0.131 1.58,-0.393 0.37,-0.271 0.55,-0.622 0.55,-1.054 z m 12.45,4.05 c -2.02,0 -3.66,-0.618 -4.93,-1.854 -1.26,-1.235 -1.89,-2.881 -1.89,-4.938 v -0.356 c 0,-1.379 0.26,-2.611 0.8,-3.694 0.53,-1.092 1.28,-1.93 2.26,-2.514 0.98,-0.592 2.1,-0.888 3.35,-0.888 1.88,0 3.35,0.592 4.43,1.777 1.08,1.185 1.62,2.865 1.62,5.04 v 1.498 h -8.74 c 0.12,0.897 0.47,1.617 1.06,2.158 0.6,0.542 1.36,0.813 2.28,0.813 1.41,0 2.51,-0.512 3.31,-1.536 l 1.8,2.018 c -0.55,0.779 -1.29,1.388 -2.23,1.828 -0.94,0.432 -1.98,0.648 -3.12,0.648 z m -0.42,-11.274 c -0.73,0 -1.32,0.246 -1.78,0.737 -0.45,0.491 -0.74,1.193 -0.86,2.107 h 5.1 v -0.292 c -0.02,-0.812 -0.24,-1.439 -0.66,-1.879 -0.42,-0.448 -1.03,-0.673 -1.8,-0.673 z m 15.78,7.224 c 0,-0.448 -0.22,-0.8 -0.67,-1.054 -0.44,-0.262 -1.15,-0.495 -2.13,-0.698 -3.27,-0.685 -4.9,-2.073 -4.9,-4.164 0,-1.219 0.5,-2.234 1.51,-3.047 1.01,-0.821 2.34,-1.231 3.97,-1.231 1.74,0 3.14,0.41 4.18,1.231 1.05,0.821 1.57,1.888 1.57,3.199 h -3.67 c 0,-0.524 -0.17,-0.956 -0.51,-1.294 -0.33,-0.347 -0.86,-0.521 -1.58,-0.521 -0.62,0 -1.1,0.14 -1.44,0.419 -0.34,0.279 -0.5,0.635 -0.5,1.066 0,0.407 0.19,0.737 0.57,0.991 0.39,0.245 1.04,0.461 1.95,0.647 0.92,0.178 1.69,0.381 2.31,0.609 1.94,0.711 2.91,1.943 2.91,3.695 0,1.252 -0.54,2.268 -1.61,3.047 -1.08,0.77 -2.47,1.155 -4.17,1.155 -1.15,0 -2.17,-0.203 -3.07,-0.609 -0.89,-0.415 -1.59,-0.978 -2.09,-1.689 -0.51,-0.719 -0.77,-1.494 -0.77,-2.323 h 3.48 c 0.04,0.652 0.28,1.151 0.73,1.498 0.45,0.347 1.05,0.52 1.8,0.52 0.7,0 1.23,-0.131 1.59,-0.393 0.36,-0.271 0.54,-0.622 0.54,-1.054 z m 7.08,8.43 -1.92,-1.003 0.46,-0.825 c 0.57,-1.033 0.86,-2.061 0.87,-3.085 v -2.844 h 3.1 l -0.01,2.539 c -0.01,0.939 -0.25,1.887 -0.71,2.844 -0.47,0.956 -1.06,1.747 -1.79,2.374 z m -188.1,19.57 c 0,-0.448 -0.23,-0.8 -0.68,-1.054 -0.44,-0.262 -1.15,-0.495 -2.13,-0.698 -3.27,-0.685 -4.9,-2.073 -4.9,-4.164 0,-1.219 0.5,-2.234 1.51,-3.047 1.02,-0.821 2.34,-1.231 3.98,-1.231 1.74,0 3.13,0.41 4.17,1.231 1.05,0.821 1.58,1.888 1.58,3.199 h -3.67 c 0,-0.524 -0.17,-0.956 -0.51,-1.294 -0.34,-0.347 -0.87,-0.521 -1.59,-0.521 -0.61,0 -1.09,0.14 -1.43,0.419 -0.34,0.279 -0.51,0.635 -0.51,1.066 0,0.407 0.19,0.737 0.57,0.991 0.39,0.245 1.04,0.461 1.96,0.647 0.91,0.178 1.68,0.381 2.31,0.609 1.94,0.711 2.9,1.943 2.9,3.695 0,1.252 -0.53,2.268 -1.61,3.047 -1.07,0.77 -2.46,1.155 -4.16,1.155 -1.15,0 -2.18,-0.203 -3.07,-0.609 -0.89,-0.415 -1.59,-0.978 -2.1,-1.689 -0.51,-0.719 -0.76,-1.494 -0.76,-2.323 h 3.48 c 0.03,0.652 0.27,1.151 0.72,1.498 0.45,0.347 1.05,0.52 1.8,0.52 0.71,0 1.24,-0.131 1.59,-0.393 0.37,-0.271 0.55,-0.622 0.55,-1.054 z m 11.25,-1.396 2.54,-8.544 h 3.94 l -5.53,15.869 -0.3,0.723 c -0.82,1.795 -2.18,2.692 -4.06,2.692 -0.54,0 -1.08,-0.081 -1.63,-0.241 v -2.781 l 0.56,0.013 c 0.69,0 1.21,-0.106 1.55,-0.317 0.35,-0.212 0.62,-0.563 0.81,-1.054 l 0.43,-1.13 -4.81,-13.774 h 3.95 z m 11.48,-8.544 0.12,1.587 c 0.98,-1.228 2.3,-1.841 3.95,-1.841 1.45,0 2.53,0.427 3.25,1.282 0.71,0.855 1.07,2.133 1.09,3.834 v 8.874 h -3.67 v -8.785 c 0,-0.779 -0.17,-1.342 -0.51,-1.689 -0.34,-0.355 -0.9,-0.533 -1.69,-0.533 -1.03,0 -1.8,0.44 -2.32,1.32 v 9.687 h -3.67 v -13.736 z m 17.1,11.032 c 0.67,0 1.22,-0.186 1.65,-0.559 0.42,-0.372 0.64,-0.867 0.66,-1.485 h 3.44 c -0.01,0.931 -0.26,1.786 -0.76,2.564 -0.5,0.771 -1.19,1.372 -2.06,1.803 -0.86,0.423 -1.82,0.635 -2.87,0.635 -1.96,0 -3.51,-0.622 -4.65,-1.866 -1.13,-1.253 -1.7,-2.979 -1.7,-5.18 v -0.241 c 0,-2.116 0.57,-3.805 1.69,-5.066 1.13,-1.261 2.67,-1.891 4.63,-1.891 1.72,0 3.1,0.491 4.13,1.472 1.04,0.974 1.57,2.273 1.59,3.898 h -3.44 c -0.02,-0.711 -0.24,-1.287 -0.66,-1.727 -0.43,-0.448 -0.98,-0.673 -1.68,-0.673 -0.85,0 -1.5,0.314 -1.94,0.94 -0.43,0.618 -0.65,1.625 -0.65,3.021 v 0.381 c 0,1.414 0.22,2.429 0.65,3.047 0.43,0.618 1.09,0.927 1.97,0.927 z m 11.61,-9.534 c 0.97,-1.168 2.19,-1.752 3.66,-1.752 2.98,0 4.49,1.731 4.54,5.192 v 8.798 h -3.67 v -8.696 c 0,-0.787 -0.17,-1.367 -0.51,-1.74 -0.34,-0.38 -0.9,-0.571 -1.69,-0.571 -1.07,0 -1.85,0.415 -2.33,1.244 v 9.763 h -3.67 v -19.5 h 3.67 z m 18.87,1.942 c -0.5,-0.068 -0.94,-0.101 -1.32,-0.101 -1.39,0 -2.3,0.469 -2.73,1.409 v 8.988 h -3.67 v -13.736 h 3.46 l 0.11,1.637 c 0.73,-1.261 1.75,-1.891 3.05,-1.891 0.41,0 0.79,0.055 1.15,0.165 z m 0.93,3.301 c 0,-1.363 0.26,-2.577 0.79,-3.644 0.52,-1.066 1.27,-1.891 2.26,-2.475 0.99,-0.584 2.13,-0.876 3.44,-0.876 1.85,0 3.36,0.567 4.53,1.701 1.17,1.134 1.83,2.674 1.97,4.621 l 0.02,0.939 c 0,2.108 -0.59,3.801 -1.76,5.079 -1.18,1.269 -2.76,1.904 -4.74,1.904 -1.98,0 -3.56,-0.635 -4.75,-1.904 -1.17,-1.27 -1.76,-2.996 -1.76,-5.18 z m 3.67,0.266 c 0,1.304 0.24,2.303 0.73,2.997 0.5,0.685 1.2,1.028 2.11,1.028 0.89,0 1.58,-0.339 2.08,-1.016 0.5,-0.685 0.75,-1.777 0.75,-3.275 0,-1.278 -0.25,-2.268 -0.75,-2.971 -0.5,-0.702 -1.2,-1.054 -2.1,-1.054 -0.9,0 -1.59,0.352 -2.09,1.054 -0.49,0.694 -0.73,1.773 -0.73,3.237 z m 15.16,-7.007 0.12,1.587 c 0.98,-1.228 2.29,-1.841 3.94,-1.841 1.46,0 2.54,0.427 3.25,1.282 0.72,0.855 1.08,2.133 1.1,3.834 v 8.874 h -3.67 v -8.785 c 0,-0.779 -0.17,-1.342 -0.51,-1.689 -0.34,-0.355 -0.9,-0.533 -1.69,-0.533 -1.03,0 -1.81,0.44 -2.32,1.32 v 9.687 h -3.67 v -13.736 z m 10.81,6.741 c 0,-1.363 0.26,-2.577 0.79,-3.644 0.52,-1.066 1.28,-1.891 2.26,-2.475 0.99,-0.584 2.13,-0.876 3.44,-0.876 1.85,0 3.36,0.567 4.53,1.701 1.18,1.134 1.83,2.674 1.97,4.621 l 0.02,0.939 c 0,2.108 -0.58,3.801 -1.76,5.079 -1.18,1.269 -2.76,1.904 -4.74,1.904 -1.98,0 -3.56,-0.635 -4.74,-1.904 -1.18,-1.27 -1.77,-2.996 -1.77,-5.18 z m 3.67,0.266 c 0,1.304 0.25,2.303 0.74,2.997 0.49,0.685 1.19,1.028 2.1,1.028 0.89,0 1.59,-0.339 2.09,-1.016 0.5,-0.685 0.74,-1.777 0.74,-3.275 0,-1.278 -0.24,-2.268 -0.74,-2.971 -0.5,-0.702 -1.21,-1.054 -2.11,-1.054 -0.9,0 -1.59,0.352 -2.08,1.054 -0.49,0.694 -0.74,1.773 -0.74,3.237 z m 20.01,5.333 c -0.9,1.1 -2.15,1.65 -3.75,1.65 -1.48,0 -2.6,-0.423 -3.38,-1.27 -0.77,-0.846 -1.17,-2.086 -1.18,-3.719 v -9.001 h 3.67 v 8.874 c 0,1.43 0.65,2.145 1.95,2.145 1.25,0 2.1,-0.431 2.57,-1.295 v -9.724 h 3.68 v 13.736 h -3.46 z m 13.95,-2.4 c 0,-0.448 -0.23,-0.8 -0.67,-1.054 -0.44,-0.262 -1.16,-0.495 -2.14,-0.698 -3.26,-0.685 -4.9,-2.073 -4.9,-4.164 0,-1.219 0.51,-2.234 1.51,-3.047 1.02,-0.821 2.34,-1.231 3.98,-1.231 1.74,0 3.13,0.41 4.17,1.231 1.05,0.821 1.58,1.888 1.58,3.199 h -3.67 c 0,-0.524 -0.17,-0.956 -0.51,-1.294 -0.34,-0.347 -0.87,-0.521 -1.59,-0.521 -0.61,0 -1.09,0.14 -1.43,0.419 -0.34,0.279 -0.51,0.635 -0.51,1.066 0,0.407 0.19,0.737 0.57,0.991 0.39,0.245 1.04,0.461 1.96,0.647 0.91,0.178 1.68,0.381 2.31,0.609 1.94,0.711 2.91,1.943 2.91,3.695 0,1.252 -0.54,2.268 -1.62,3.047 -1.07,0.77 -2.46,1.155 -4.16,1.155 -1.15,0 -2.18,-0.203 -3.07,-0.609 -0.89,-0.415 -1.59,-0.978 -2.1,-1.689 -0.51,-0.719 -0.76,-1.494 -0.76,-2.323 h 3.48 c 0.03,0.652 0.27,1.151 0.72,1.498 0.45,0.347 1.05,0.52 1.81,0.52 0.7,0 1.23,-0.131 1.58,-0.393 0.37,-0.271 0.55,-0.622 0.55,-1.054 z m 12.45,-3.428 c 0,1.913 -0.28,3.754 -0.83,5.523 -0.55,1.769 -1.34,3.33 -2.37,4.684 -1.04,1.355 -2.14,2.286 -3.32,2.793 l -0.71,-1.942 c 1.2,-0.906 2.15,-2.302 2.85,-4.189 0.69,-1.888 1.05,-4.059 1.07,-6.513 v -0.673 c 0,-2.531 -0.34,-4.761 -1.04,-6.69 -0.68,-1.93 -1.64,-3.377 -2.88,-4.342 l 0.71,-1.943 c 1.15,0.5 2.24,1.405 3.25,2.717 1.03,1.312 1.82,2.84 2.38,4.583 0.56,1.744 0.86,3.551 0.89,5.421 z"
     fill="#1d1d1d"
     id="path5285" />
  <rect
     x="2"
     y="249.881"
     width="308"
     height="72"
     rx="3"
     fill="#e2e4f6"
     stroke="#0135b4"
     stroke-width="4"
     id="rect5287" />
  <path
     d="m 61.005,294.881 v -18.484 h 5.687 c 1.625,0 3.077,0.368 4.355,1.104 1.286,0.728 2.289,1.769 3.009,3.123 0.719,1.346 1.079,2.878 1.079,4.596 v 0.85 c 0,1.719 -0.356,3.246 -1.067,4.583 -0.702,1.338 -1.697,2.374 -2.983,3.111 -1.287,0.736 -2.738,1.109 -4.355,1.117 z m 3.808,-15.399 v 12.339 h 1.841 c 1.49,0 2.628,-0.486 3.415,-1.46 0.787,-0.973 1.189,-2.365 1.206,-4.176 v -0.978 c 0,-1.879 -0.389,-3.301 -1.168,-4.265 -0.778,-0.974 -1.917,-1.46 -3.415,-1.46 z m 21.004,15.399 c -0.169,-0.33 -0.292,-0.741 -0.368,-1.231 -0.889,0.99 -2.044,1.485 -3.466,1.485 -1.346,0 -2.463,-0.389 -3.352,-1.168 -0.88,-0.779 -1.32,-1.76 -1.32,-2.945 0,-1.456 0.538,-2.573 1.612,-3.352 1.084,-0.779 2.645,-1.172 4.685,-1.181 h 1.688 v -0.787 c 0,-0.634 -0.165,-1.142 -0.495,-1.523 -0.321,-0.381 -0.833,-0.571 -1.536,-0.571 -0.618,0 -1.104,0.148 -1.46,0.444 -0.347,0.296 -0.52,0.702 -0.52,1.219 h -3.669 c 0,-0.796 0.245,-1.532 0.736,-2.209 0.491,-0.677 1.185,-1.206 2.082,-1.587 0.897,-0.39 1.904,-0.584 3.022,-0.584 1.692,0 3.034,0.427 4.024,1.282 0.999,0.846 1.498,2.04 1.498,3.58 v 5.954 c 0.009,1.304 0.191,2.29 0.546,2.958 v 0.216 z m -3.034,-2.552 c 0.541,0 1.041,-0.118 1.498,-0.355 0.457,-0.246 0.795,-0.572 1.015,-0.978 v -2.361 h -1.371 c -1.836,0 -2.814,0.635 -2.932,1.904 l -0.013,0.216 c 0,0.457 0.161,0.834 0.483,1.13 0.321,0.296 0.761,0.444 1.32,0.444 z m 16.636,-1.244 c 0,-0.448 -0.224,-0.8 -0.673,-1.054 -0.44,-0.262 -1.151,-0.495 -2.132,-0.698 -3.267,-0.685 -4.901,-2.073 -4.901,-4.164 0,-1.219 0.504,-2.234 1.511,-3.047 1.016,-0.821 2.34,-1.231 3.974,-1.231 1.743,0 3.135,0.41 4.176,1.231 1.05,0.821 1.575,1.888 1.575,3.199 H 99.28 c 0,-0.524 -0.17,-0.956 -0.508,-1.294 -0.339,-0.347 -0.868,-0.521 -1.587,-0.521 -0.618,0 -1.096,0.14 -1.435,0.419 -0.338,0.279 -0.507,0.635 -0.507,1.066 0,0.407 0.19,0.737 0.571,0.991 0.389,0.245 1.041,0.461 1.955,0.647 0.914,0.178 1.684,0.381 2.31,0.609 1.939,0.711 2.908,1.943 2.908,3.695 0,1.252 -0.538,2.268 -1.613,3.047 -1.075,0.77 -2.463,1.155 -4.164,1.155 -1.151,0 -2.175,-0.203 -3.072,-0.609 -0.889,-0.415 -1.587,-0.978 -2.095,-1.689 -0.508,-0.719 -0.761,-1.494 -0.761,-2.323 h 3.478 c 0.034,0.652 0.275,1.151 0.724,1.498 0.448,0.347 1.049,0.52 1.802,0.52 0.703,0 1.232,-0.131 1.587,-0.393 0.364,-0.271 0.546,-0.622 0.546,-1.054 z m 11.114,-1.714 -1.32,1.321 v 4.189 h -3.669 v -19.5 h 3.669 v 10.804 l 0.711,-0.914 3.516,-4.126 h 4.406 l -4.964,5.725 5.395,8.011 h -4.214 z m 15.982,5.51 v -18.484 h 5.688 c 1.625,0 3.076,0.368 4.354,1.104 1.287,0.728 2.29,1.769 3.009,3.123 0.719,1.346 1.079,2.878 1.079,4.596 v 0.85 c 0,1.719 -0.355,3.246 -1.066,4.583 -0.703,1.338 -1.697,2.374 -2.984,3.111 -1.286,0.736 -2.738,1.109 -4.354,1.117 z m 3.809,-15.399 v 12.339 h 1.841 c 1.489,0 2.628,-0.486 3.415,-1.46 0.787,-0.973 1.189,-2.365 1.206,-4.176 v -0.978 c 0,-1.879 -0.39,-3.301 -1.168,-4.265 -0.779,-0.974 -1.917,-1.46 -3.415,-1.46 z m 21.003,15.399 c -0.169,-0.33 -0.292,-0.741 -0.368,-1.231 -0.888,0.99 -2.044,1.485 -3.466,1.485 -1.345,0 -2.462,-0.389 -3.351,-1.168 -0.88,-0.779 -1.32,-1.76 -1.32,-2.945 0,-1.456 0.537,-2.573 1.612,-3.352 1.083,-0.779 2.645,-1.172 4.684,-1.181 h 1.689 v -0.787 c 0,-0.634 -0.165,-1.142 -0.495,-1.523 -0.322,-0.381 -0.834,-0.571 -1.536,-0.571 -0.618,0 -1.105,0.148 -1.46,0.444 -0.347,0.296 -0.521,0.702 -0.521,1.219 h -3.669 c 0,-0.796 0.246,-1.532 0.737,-2.209 0.49,-0.677 1.184,-1.206 2.082,-1.587 0.897,-0.39 1.904,-0.584 3.021,-0.584 1.693,0 3.034,0.427 4.024,1.282 0.999,0.846 1.499,2.04 1.499,3.58 v 5.954 c 0.008,1.304 0.19,2.29 0.545,2.958 v 0.216 z m -3.034,-2.552 c 0.542,0 1.041,-0.118 1.498,-0.355 0.457,-0.246 0.796,-0.572 1.016,-0.978 v -2.361 h -1.371 c -1.837,0 -2.814,0.635 -2.933,1.904 l -0.013,0.216 c 0,0.457 0.161,0.834 0.483,1.13 0.322,0.296 0.762,0.444 1.32,0.444 z m 13.59,-14.561 v 3.377 h 2.348 v 2.691 h -2.348 v 6.856 c 0,0.507 0.097,0.871 0.292,1.091 0.194,0.22 0.567,0.33 1.117,0.33 0.406,0 0.766,-0.029 1.079,-0.088 v 2.78 c -0.719,0.22 -1.46,0.33 -2.222,0.33 -2.573,0 -3.884,-1.299 -3.935,-3.898 v -7.401 h -2.006 v -2.691 h 2.006 v -3.377 z m 12.536,17.113 c -0.17,-0.33 -0.292,-0.741 -0.368,-1.231 -0.889,0.99 -2.044,1.485 -3.466,1.485 -1.346,0 -2.463,-0.389 -3.352,-1.168 -0.88,-0.779 -1.32,-1.76 -1.32,-2.945 0,-1.456 0.537,-2.573 1.612,-3.352 1.083,-0.779 2.645,-1.172 4.685,-1.181 h 1.688 v -0.787 c 0,-0.634 -0.165,-1.142 -0.495,-1.523 -0.322,-0.381 -0.834,-0.571 -1.536,-0.571 -0.618,0 -1.105,0.148 -1.46,0.444 -0.347,0.296 -0.521,0.702 -0.521,1.219 h -3.668 c 0,-0.796 0.245,-1.532 0.736,-2.209 0.491,-0.677 1.185,-1.206 2.082,-1.587 0.897,-0.39 1.904,-0.584 3.021,-0.584 1.693,0 3.035,0.427 4.025,1.282 0.998,0.846 1.498,2.04 1.498,3.58 v 5.954 c 0.008,1.304 0.19,2.29 0.546,2.958 v 0.216 z m -3.034,-2.552 c 0.541,0 1.041,-0.118 1.498,-0.355 0.457,-0.246 0.795,-0.572 1.015,-0.978 v -2.361 h -1.371 c -1.837,0 -2.814,0.635 -2.933,1.904 l -0.012,0.216 c 0,0.457 0.161,0.834 0.482,1.13 0.322,0.296 0.762,0.444 1.321,0.444 z m 20.559,-5.002 h -7.313 v 7.554 h -3.808 v -18.484 h 12.035 v 3.085 h -8.227 v 4.773 h 7.313 z m 10.454,-2.742 c -0.5,-0.068 -0.94,-0.101 -1.321,-0.101 -1.388,0 -2.298,0.469 -2.729,1.409 v 8.988 h -3.669 v -13.736 h 3.466 l 0.101,1.637 c 0.737,-1.261 1.756,-1.891 3.06,-1.891 0.406,0 0.787,0.055 1.142,0.165 z m 9.539,10.296 c -0.169,-0.33 -0.292,-0.741 -0.368,-1.231 -0.888,0.99 -2.044,1.485 -3.466,1.485 -1.345,0 -2.462,-0.389 -3.351,-1.168 -0.88,-0.779 -1.32,-1.76 -1.32,-2.945 0,-1.456 0.537,-2.573 1.612,-3.352 1.083,-0.779 2.645,-1.172 4.684,-1.181 h 1.689 v -0.787 c 0,-0.634 -0.165,-1.142 -0.495,-1.523 -0.322,-0.381 -0.834,-0.571 -1.536,-0.571 -0.618,0 -1.105,0.148 -1.46,0.444 -0.347,0.296 -0.521,0.702 -0.521,1.219 h -3.669 c 0,-0.796 0.246,-1.532 0.737,-2.209 0.49,-0.677 1.184,-1.206 2.082,-1.587 0.897,-0.39 1.904,-0.584 3.021,-0.584 1.693,0 3.034,0.427 4.025,1.282 0.998,0.846 1.498,2.04 1.498,3.58 v 5.954 c 0.008,1.304 0.19,2.29 0.545,2.958 v 0.216 z m -3.034,-2.552 c 0.542,0 1.041,-0.118 1.498,-0.355 0.457,-0.246 0.796,-0.572 1.016,-0.978 v -2.361 h -1.371 c -1.837,0 -2.814,0.635 -2.933,1.904 l -0.012,0.216 c 0,0.457 0.16,0.834 0.482,1.13 0.322,0.296 0.762,0.444 1.32,0.444 z m 12.638,-11.184 0.114,1.536 c 0.973,-1.194 2.289,-1.79 3.948,-1.79 1.769,0 2.984,0.698 3.644,2.094 0.965,-1.396 2.34,-2.094 4.126,-2.094 1.489,0 2.598,0.436 3.326,1.307 0.728,0.864 1.092,2.167 1.092,3.911 v 8.772 h -3.682 v -8.76 c 0,-0.778 -0.152,-1.345 -0.457,-1.701 -0.305,-0.364 -0.842,-0.546 -1.612,-0.546 -1.101,0 -1.862,0.525 -2.285,1.574 l 0.012,9.433 h -3.669 v -8.747 c 0,-0.796 -0.156,-1.371 -0.469,-1.727 -0.314,-0.355 -0.847,-0.533 -1.6,-0.533 -1.041,0 -1.794,0.432 -2.26,1.295 v 9.712 H 218.1 v -13.736 z m 25.586,13.99 c -2.014,0 -3.656,-0.618 -4.925,-1.854 -1.261,-1.235 -1.892,-2.881 -1.892,-4.938 v -0.356 c 0,-1.379 0.267,-2.611 0.8,-3.694 0.533,-1.092 1.286,-1.93 2.26,-2.514 0.981,-0.592 2.098,-0.888 3.351,-0.888 1.879,0 3.356,0.592 4.431,1.777 1.083,1.185 1.625,2.865 1.625,5.04 v 1.498 h -8.747 c 0.118,0.897 0.474,1.617 1.066,2.158 0.601,0.542 1.358,0.813 2.273,0.813 1.413,0 2.517,-0.512 3.313,-1.536 l 1.803,2.018 c -0.55,0.779 -1.295,1.388 -2.235,1.828 -0.939,0.432 -1.98,0.648 -3.123,0.648 z m -0.419,-11.274 c -0.727,0 -1.32,0.246 -1.777,0.737 -0.449,0.491 -0.736,1.193 -0.863,2.107 h 5.103 v -0.292 c -0.017,-0.812 -0.237,-1.439 -0.66,-1.879 -0.423,-0.448 -1.024,-0.673 -1.803,-0.673 z"
     fill="#1d1d1d"
     id="path5289" />
  <rect
     x="1148"
     y="412.34402"
     width="308"
     height="72"
     rx="3"
     fill="#fff7e7"
     stroke="#fe6939"
     stroke-width="4"
     id="rect5291" />
  <path
     d="M 1238.1,457.344 V 438.86 h 5.69 c 1.62,0 3.07,0.368 4.35,1.104 1.29,0.728 2.29,1.769 3.01,3.123 0.72,1.346 1.08,2.878 1.08,4.596 v 0.85 c 0,1.718 -0.36,3.246 -1.07,4.583 -0.7,1.338 -1.69,2.374 -2.98,3.111 -1.29,0.736 -2.74,1.108 -4.36,1.117 z m 3.81,-15.4 v 12.34 h 1.84 c 1.49,0 2.63,-0.486 3.41,-1.46 0.79,-0.973 1.19,-2.365 1.21,-4.176 v -0.978 c 0,-1.879 -0.39,-3.301 -1.17,-4.266 -0.78,-0.973 -1.92,-1.46 -3.41,-1.46 z m 16.91,15.4 h -3.68 v -13.736 h 3.68 z m -3.89,-17.291 c 0,-0.55 0.18,-1.003 0.54,-1.359 0.37,-0.355 0.88,-0.533 1.51,-0.533 0.63,0 1.13,0.178 1.5,0.533 0.37,0.356 0.56,0.809 0.56,1.359 0,0.558 -0.19,1.016 -0.57,1.371 -0.37,0.355 -0.87,0.533 -1.49,0.533 -0.62,0 -1.11,-0.178 -1.5,-0.533 -0.37,-0.355 -0.55,-0.813 -0.55,-1.371 z m 14.55,13.495 c 0,-0.449 -0.22,-0.8 -0.67,-1.054 -0.44,-0.262 -1.15,-0.495 -2.14,-0.698 -3.26,-0.686 -4.9,-2.074 -4.9,-4.164 0,-1.219 0.51,-2.234 1.52,-3.047 1.01,-0.821 2.34,-1.231 3.97,-1.231 1.74,0 3.13,0.41 4.18,1.231 1.04,0.821 1.57,1.887 1.57,3.199 h -3.67 c 0,-0.524 -0.17,-0.956 -0.51,-1.295 -0.34,-0.347 -0.86,-0.52 -1.58,-0.52 -0.62,0 -1.1,0.14 -1.44,0.419 -0.34,0.279 -0.51,0.635 -0.51,1.066 0,0.406 0.19,0.737 0.57,0.99 0.39,0.246 1.05,0.462 1.96,0.648 0.91,0.178 1.68,0.381 2.31,0.609 1.94,0.711 2.91,1.943 2.91,3.695 0,1.252 -0.54,2.268 -1.61,3.047 -1.08,0.77 -2.47,1.155 -4.17,1.155 -1.15,0 -2.17,-0.203 -3.07,-0.61 -0.89,-0.414 -1.59,-0.977 -2.1,-1.688 -0.5,-0.719 -0.76,-1.494 -0.76,-2.323 h 3.48 c 0.04,0.651 0.28,1.151 0.72,1.498 0.45,0.347 1.05,0.52 1.81,0.52 0.7,0 1.23,-0.131 1.58,-0.393 0.37,-0.271 0.55,-0.622 0.55,-1.054 z M 1280,440.231 v 3.377 h 2.35 v 2.691 H 1280 v 6.855 c 0,0.508 0.1,0.872 0.29,1.092 0.19,0.22 0.57,0.33 1.12,0.33 0.4,0 0.76,-0.029 1.08,-0.089 v 2.781 c -0.72,0.22 -1.46,0.33 -2.23,0.33 -2.57,0 -3.88,-1.299 -3.93,-3.898 v -7.401 h -2.01 v -2.691 h 2.01 v -3.377 z m 12.29,6.817 c -0.5,-0.068 -0.94,-0.102 -1.32,-0.102 -1.39,0 -2.3,0.47 -2.73,1.41 v 8.988 h -3.67 v -13.736 h 3.47 l 0.1,1.637 c 0.74,-1.261 1.76,-1.891 3.06,-1.891 0.41,0 0.79,0.055 1.14,0.165 z m 5.84,10.296 h -3.69 v -13.736 h 3.69 z m -3.9,-17.291 c 0,-0.55 0.18,-1.003 0.54,-1.359 0.38,-0.355 0.88,-0.533 1.51,-0.533 0.63,0 1.13,0.178 1.5,0.533 0.37,0.356 0.56,0.809 0.56,1.359 0,0.558 -0.19,1.016 -0.57,1.371 -0.37,0.355 -0.87,0.533 -1.49,0.533 -0.61,0 -1.11,-0.178 -1.49,-0.533 -0.38,-0.355 -0.56,-0.813 -0.56,-1.371 z m 19.49,10.55 c 0,2.2 -0.47,3.918 -1.41,5.154 -0.94,1.227 -2.25,1.841 -3.93,1.841 -1.49,0 -2.68,-0.571 -3.57,-1.714 l -0.17,1.46 h -3.3 v -19.5 h 3.67 v 6.995 c 0.85,-0.99 1.96,-1.485 3.34,-1.485 1.68,0 2.99,0.617 3.94,1.853 0.95,1.227 1.43,2.958 1.43,5.193 z m -3.67,-0.267 c 0,-1.388 -0.22,-2.399 -0.66,-3.034 -0.44,-0.643 -1.09,-0.965 -1.97,-0.965 -1.16,0 -1.97,0.478 -2.41,1.435 v 5.421 c 0.45,0.964 1.26,1.447 2.44,1.447 1.18,0 1.96,-0.584 2.34,-1.752 0.17,-0.559 0.26,-1.409 0.26,-2.552 z m 14.35,5.611 c -0.9,1.101 -2.16,1.651 -3.75,1.651 -1.48,0 -2.6,-0.423 -3.38,-1.27 -0.77,-0.846 -1.17,-2.086 -1.18,-3.719 v -9.001 h 3.67 v 8.874 c 0,1.43 0.65,2.145 1.95,2.145 1.25,0 2.1,-0.432 2.57,-1.295 v -9.724 h 3.68 v 13.736 h -3.46 z m 10.9,-15.716 v 3.377 h 2.35 v 2.691 h -2.35 v 6.855 c 0,0.508 0.1,0.872 0.29,1.092 0.2,0.22 0.57,0.33 1.12,0.33 0.41,0 0.77,-0.029 1.08,-0.089 v 2.781 c -0.72,0.22 -1.46,0.33 -2.22,0.33 -2.58,0 -3.89,-1.299 -3.94,-3.898 v -7.401 h -2 v -2.691 h 2 v -3.377 z m 10.9,17.367 c -2.02,0 -3.66,-0.618 -4.93,-1.854 -1.26,-1.235 -1.89,-2.882 -1.89,-4.938 v -0.356 c 0,-1.379 0.27,-2.611 0.8,-3.694 0.53,-1.092 1.29,-1.93 2.26,-2.514 0.98,-0.592 2.1,-0.888 3.35,-0.888 1.88,0 3.36,0.592 4.43,1.777 1.09,1.185 1.63,2.865 1.63,5.04 v 1.498 h -8.75 c 0.12,0.897 0.48,1.617 1.07,2.158 0.6,0.542 1.36,0.813 2.27,0.813 1.41,0 2.52,-0.512 3.31,-1.536 l 1.81,2.018 c -0.55,0.779 -1.3,1.388 -2.24,1.828 -0.94,0.432 -1.98,0.648 -3.12,0.648 z m -0.42,-11.274 c -0.73,0 -1.32,0.246 -1.78,0.737 -0.45,0.491 -0.73,1.193 -0.86,2.107 h 5.1 v -0.292 c -0.01,-0.812 -0.23,-1.439 -0.66,-1.879 -0.42,-0.448 -1.02,-0.673 -1.8,-0.673 z m 7.78,4.05 c 0,-2.141 0.47,-3.847 1.43,-5.116 0.96,-1.27 2.28,-1.904 3.95,-1.904 1.34,0 2.44,0.499 3.31,1.498 v -7.008 h 3.68 v 19.5 h -3.31 l -0.18,-1.46 c -0.91,1.143 -2.09,1.714 -3.53,1.714 -1.61,0 -2.91,-0.635 -3.89,-1.905 -0.98,-1.277 -1.46,-3.051 -1.46,-5.319 z m 3.66,0.267 c 0,1.286 0.23,2.272 0.68,2.958 0.45,0.685 1.1,1.028 1.95,1.028 1.14,0 1.94,-0.478 2.4,-1.434 v -5.421 c -0.46,-0.957 -1.25,-1.435 -2.37,-1.435 -1.77,0 -2.66,1.435 -2.66,4.304 z"
     fill="#1d1d1d"
     id="path5293" />
  <rect
     x="2"
     y="346.88101"
     width="308"
     height="72"
     rx="3"
     fill="#e2e4f6"
     stroke="#0135b4"
     stroke-width="4"
     id="rect5295" />
  <path
     d="m 101.921,391.881 v -18.484 h 5.687 c 1.625,0 3.077,0.368 4.355,1.104 1.286,0.728 2.289,1.769 3.009,3.123 0.719,1.346 1.079,2.878 1.079,4.596 v 0.85 c 0,1.719 -0.356,3.246 -1.067,4.583 -0.702,1.338 -1.697,2.374 -2.983,3.111 -1.286,0.736 -2.738,1.109 -4.354,1.117 z m 3.809,-15.399 v 12.339 h 1.84 c 1.49,0 2.628,-0.486 3.415,-1.46 0.788,-0.973 1.19,-2.365 1.206,-4.176 v -0.978 c 0,-1.879 -0.389,-3.301 -1.167,-4.265 -0.779,-0.974 -1.917,-1.46 -3.416,-1.46 z m 21.003,15.399 c -0.169,-0.33 -0.292,-0.741 -0.368,-1.231 -0.889,0.99 -2.044,1.485 -3.466,1.485 -1.345,0 -2.463,-0.389 -3.351,-1.168 -0.881,-0.779 -1.321,-1.76 -1.321,-2.945 0,-1.456 0.538,-2.573 1.613,-3.352 1.083,-0.779 2.645,-1.172 4.684,-1.181 h 1.689 v -0.787 c 0,-0.634 -0.165,-1.142 -0.495,-1.523 -0.322,-0.381 -0.834,-0.571 -1.537,-0.571 -0.617,0 -1.104,0.148 -1.46,0.444 -0.347,0.296 -0.52,0.702 -0.52,1.219 h -3.669 c 0,-0.796 0.245,-1.532 0.736,-2.209 0.491,-0.677 1.185,-1.206 2.082,-1.587 0.898,-0.39 1.905,-0.584 3.022,-0.584 1.693,0 3.034,0.427 4.024,1.282 0.999,0.846 1.498,2.04 1.498,3.58 v 5.954 c 0.009,1.304 0.191,2.29 0.546,2.958 v 0.216 z m -3.034,-2.552 c 0.542,0 1.041,-0.118 1.498,-0.355 0.457,-0.246 0.796,-0.572 1.016,-0.978 v -2.361 h -1.371 c -1.837,0 -2.815,0.635 -2.933,1.904 l -0.013,0.216 c 0,0.457 0.161,0.834 0.483,1.13 0.321,0.296 0.761,0.444 1.32,0.444 z m 16.636,-1.244 c 0,-0.448 -0.224,-0.8 -0.672,-1.054 -0.44,-0.262 -1.151,-0.495 -2.133,-0.698 -3.267,-0.685 -4.901,-2.073 -4.901,-4.164 0,-1.219 0.504,-2.234 1.511,-3.047 1.016,-0.821 2.34,-1.231 3.974,-1.231 1.743,0 3.136,0.41 4.177,1.231 1.049,0.821 1.574,1.888 1.574,3.199 h -3.669 c 0,-0.524 -0.169,-0.956 -0.508,-1.294 -0.339,-0.347 -0.867,-0.521 -1.587,-0.521 -0.618,0 -1.096,0.14 -1.434,0.419 -0.339,0.279 -0.508,0.635 -0.508,1.066 0,0.407 0.19,0.737 0.571,0.991 0.389,0.245 1.041,0.461 1.955,0.647 0.914,0.178 1.684,0.381 2.311,0.609 1.938,0.711 2.907,1.943 2.907,3.695 0,1.252 -0.538,2.268 -1.612,3.047 -1.075,0.77 -2.463,1.155 -4.165,1.155 -1.151,0 -2.175,-0.203 -3.072,-0.609 -0.888,-0.415 -1.587,-0.978 -2.094,-1.689 -0.508,-0.719 -0.762,-1.494 -0.762,-2.323 h 3.478 c 0.034,0.652 0.275,1.151 0.724,1.498 0.449,0.347 1.049,0.52 1.803,0.52 0.702,0 1.231,-0.131 1.587,-0.393 0.364,-0.271 0.545,-0.622 0.545,-1.054 z m 11.114,-1.714 -1.32,1.321 v 4.189 h -3.669 v -19.5 h 3.669 v 10.804 l 0.711,-0.914 3.517,-4.126 h 4.405 l -4.964,5.725 5.396,8.011 h -4.215 z m 15.982,5.51 v -18.484 h 6.475 c 2.243,0 3.944,0.431 5.104,1.295 1.159,0.854 1.739,2.111 1.739,3.77 0,0.906 -0.233,1.705 -0.698,2.399 -0.466,0.686 -1.113,1.19 -1.943,1.511 0.948,0.237 1.693,0.715 2.235,1.435 0.55,0.719 0.825,1.599 0.825,2.64 0,1.778 -0.567,3.123 -1.701,4.038 -1.135,0.914 -2.751,1.379 -4.85,1.396 z m 3.809,-8.049 v 4.989 h 3.263 c 0.897,0 1.595,-0.211 2.094,-0.634 0.508,-0.432 0.762,-1.024 0.762,-1.778 0,-1.692 -0.876,-2.551 -2.628,-2.577 z m 0,-2.691 h 2.818 c 1.922,-0.034 2.882,-0.8 2.882,-2.298 0,-0.838 -0.245,-1.439 -0.736,-1.803 -0.483,-0.372 -1.249,-0.558 -2.298,-0.558 h -2.666 z m 20.699,10.74 c -0.169,-0.33 -0.292,-0.741 -0.368,-1.231 -0.889,0.99 -2.044,1.485 -3.466,1.485 -1.346,0 -2.463,-0.389 -3.352,-1.168 -0.88,-0.779 -1.32,-1.76 -1.32,-2.945 0,-1.456 0.538,-2.573 1.612,-3.352 1.084,-0.779 2.645,-1.172 4.685,-1.181 h 1.688 v -0.787 c 0,-0.634 -0.165,-1.142 -0.495,-1.523 -0.321,-0.381 -0.833,-0.571 -1.536,-0.571 -0.618,0 -1.104,0.148 -1.46,0.444 -0.347,0.296 -0.52,0.702 -0.52,1.219 h -3.669 c 0,-0.796 0.245,-1.532 0.736,-2.209 0.491,-0.677 1.185,-1.206 2.082,-1.587 0.897,-0.39 1.904,-0.584 3.022,-0.584 1.692,0 3.034,0.427 4.024,1.282 0.999,0.846 1.498,2.04 1.498,3.58 v 5.954 c 0.009,1.304 0.19,2.29 0.546,2.958 v 0.216 z m -3.034,-2.552 c 0.541,0 1.041,-0.118 1.498,-0.355 0.457,-0.246 0.795,-0.572 1.015,-0.978 v -2.361 h -1.371 c -1.836,0 -2.814,0.635 -2.932,1.904 l -0.013,0.216 c 0,0.457 0.161,0.834 0.482,1.13 0.322,0.296 0.762,0.444 1.321,0.444 z m 8.664,-4.418 c 0,-2.107 0.499,-3.804 1.498,-5.091 1.007,-1.286 2.361,-1.929 4.062,-1.929 1.507,0 2.679,0.516 3.517,1.549 l 0.152,-1.295 h 3.326 v 13.279 c 0,1.202 -0.275,2.247 -0.825,3.136 -0.542,0.888 -1.308,1.565 -2.298,2.031 -0.99,0.465 -2.15,0.698 -3.478,0.698 -1.008,0 -1.989,-0.203 -2.946,-0.609 -0.956,-0.398 -1.68,-0.914 -2.171,-1.549 l 1.625,-2.234 c 0.915,1.024 2.023,1.536 3.327,1.536 0.973,0 1.73,-0.263 2.272,-0.787 0.542,-0.517 0.813,-1.253 0.813,-2.209 V 390.7 c -0.847,0.957 -1.96,1.435 -3.339,1.435 -1.651,0 -2.988,-0.643 -4.012,-1.93 -1.016,-1.295 -1.523,-3.009 -1.523,-5.141 z m 3.669,0.267 c 0,1.244 0.249,2.222 0.749,2.932 0.499,0.703 1.184,1.054 2.056,1.054 1.117,0 1.917,-0.419 2.4,-1.257 v -5.776 c -0.491,-0.838 -1.283,-1.257 -2.374,-1.257 -0.881,0 -1.575,0.36 -2.082,1.079 -0.5,0.72 -0.749,1.795 -0.749,3.225 z"
     fill="#1d1d1d"
     id="path5297" />
  <rect
     x="2"
     y="443.88101"
     width="308"
     height="72"
     rx="3"
     fill="#e2e4f6"
     stroke="#0135b4"
     stroke-width="4"
     id="rect5299" />
  <path
     d="m 78.149,488.881 v -18.484 h 5.688 c 1.625,0 3.076,0.368 4.354,1.104 1.286,0.728 2.289,1.769 3.009,3.123 0.719,1.346 1.079,2.878 1.079,4.596 v 0.85 c 0,1.719 -0.356,3.246 -1.066,4.583 -0.703,1.338 -1.697,2.374 -2.984,3.111 -1.286,0.736 -2.738,1.109 -4.354,1.117 z m 3.809,-15.399 v 12.339 h 1.84 c 1.49,0 2.628,-0.486 3.415,-1.46 0.788,-0.973 1.19,-2.365 1.207,-4.176 v -0.978 c 0,-1.879 -0.39,-3.301 -1.168,-4.265 -0.779,-0.974 -1.917,-1.46 -3.415,-1.46 z m 21.003,15.399 c -0.169,-0.33 -0.292,-0.741 -0.368,-1.231 -0.889,0.99 -2.044,1.485 -3.466,1.485 -1.345,0 -2.463,-0.389 -3.351,-1.168 -0.88,-0.779 -1.321,-1.76 -1.321,-2.945 0,-1.456 0.538,-2.573 1.613,-3.352 1.083,-0.779 2.645,-1.172 4.684,-1.181 h 1.689 v -0.787 c 0,-0.634 -0.165,-1.142 -0.495,-1.523 -0.322,-0.381 -0.834,-0.571 -1.536,-0.571 -0.618,0 -1.105,0.148 -1.46,0.444 -0.347,0.296 -0.521,0.702 -0.521,1.219 H 94.76 c 0,-0.796 0.246,-1.532 0.736,-2.209 0.491,-0.677 1.185,-1.206 2.082,-1.587 0.898,-0.39 1.905,-0.584 3.022,-0.584 1.693,0 3.034,0.427 4.024,1.282 0.999,0.846 1.498,2.04 1.498,3.58 v 5.954 c 0.009,1.304 0.191,2.29 0.546,2.958 v 0.216 z m -3.034,-2.552 c 0.542,0 1.041,-0.118 1.498,-0.355 0.457,-0.246 0.796,-0.572 1.016,-0.978 v -2.361 h -1.371 c -1.837,0 -2.814,0.635 -2.933,1.904 l -0.013,0.216 c 0,0.457 0.161,0.834 0.483,1.13 0.321,0.296 0.761,0.444 1.32,0.444 z m 16.637,-1.244 c 0,-0.448 -0.225,-0.8 -0.673,-1.054 -0.44,-0.262 -1.151,-0.495 -2.133,-0.698 -3.267,-0.685 -4.901,-2.073 -4.901,-4.164 0,-1.219 0.504,-2.234 1.511,-3.047 1.016,-0.821 2.34,-1.231 3.974,-1.231 1.743,0 3.136,0.41 4.177,1.231 1.049,0.821 1.574,1.888 1.574,3.199 h -3.669 c 0,-0.524 -0.169,-0.956 -0.508,-1.294 -0.338,-0.347 -0.867,-0.521 -1.587,-0.521 -0.618,0 -1.096,0.14 -1.434,0.419 -0.339,0.279 -0.508,0.635 -0.508,1.066 0,0.407 0.19,0.737 0.571,0.991 0.389,0.245 1.041,0.461 1.955,0.647 0.914,0.178 1.684,0.381 2.311,0.609 1.938,0.711 2.907,1.943 2.907,3.695 0,1.252 -0.538,2.268 -1.612,3.047 -1.075,0.77 -2.463,1.155 -4.164,1.155 -1.151,0 -2.176,-0.203 -3.073,-0.609 -0.888,-0.415 -1.587,-0.978 -2.094,-1.689 -0.508,-0.719 -0.762,-1.494 -0.762,-2.323 h 3.478 c 0.034,0.652 0.275,1.151 0.724,1.498 0.449,0.347 1.049,0.52 1.803,0.52 0.702,0 1.231,-0.131 1.587,-0.393 0.364,-0.271 0.546,-0.622 0.546,-1.054 z m 11.114,-1.714 -1.321,1.321 v 4.189 h -3.669 v -19.5 h 3.669 v 10.804 l 0.711,-0.914 3.517,-4.126 h 4.405 l -4.964,5.725 5.396,8.011 h -4.215 z m 15.981,5.51 v -18.484 h 5.688 c 1.625,0 3.076,0.368 4.354,1.104 1.287,0.728 2.29,1.769 3.009,3.123 0.72,1.346 1.079,2.878 1.079,4.596 v 0.85 c 0,1.719 -0.355,3.246 -1.066,4.583 -0.703,1.338 -1.697,2.374 -2.983,3.111 -1.287,0.736 -2.738,1.109 -4.355,1.117 z m 3.809,-15.399 v 12.339 h 1.841 c 1.489,0 2.628,-0.486 3.415,-1.46 0.787,-0.973 1.189,-2.365 1.206,-4.176 v -0.978 c 0,-1.879 -0.389,-3.301 -1.168,-4.265 -0.779,-0.974 -1.917,-1.46 -3.415,-1.46 z m 19.366,15.653 c -2.014,0 -3.656,-0.618 -4.926,-1.854 -1.261,-1.235 -1.891,-2.881 -1.891,-4.938 v -0.356 c 0,-1.379 0.266,-2.611 0.799,-3.694 0.534,-1.092 1.287,-1.93 2.26,-2.514 0.982,-0.592 2.099,-0.888 3.352,-0.888 1.879,0 3.356,0.592 4.43,1.777 1.084,1.185 1.625,2.865 1.625,5.04 v 1.498 h -8.747 c 0.119,0.897 0.474,1.617 1.067,2.158 0.601,0.542 1.358,0.813 2.272,0.813 1.414,0 2.518,-0.512 3.314,-1.536 l 1.802,2.018 c -0.55,0.779 -1.295,1.388 -2.234,1.828 -0.939,0.432 -1.98,0.648 -3.123,0.648 z m -0.419,-11.274 c -0.728,0 -1.32,0.246 -1.777,0.737 -0.449,0.491 -0.737,1.193 -0.864,2.107 h 5.104 v -0.292 c -0.017,-0.812 -0.237,-1.439 -0.66,-1.879 -0.423,-0.448 -1.024,-0.673 -1.803,-0.673 z m 12.219,11.02 h -3.682 v -19.5 h 3.682 z m 11.177,0 c -0.169,-0.33 -0.292,-0.741 -0.368,-1.231 -0.889,0.99 -2.044,1.485 -3.466,1.485 -1.346,0 -2.463,-0.389 -3.352,-1.168 -0.88,-0.779 -1.32,-1.76 -1.32,-2.945 0,-1.456 0.538,-2.573 1.612,-3.352 1.084,-0.779 2.645,-1.172 4.685,-1.181 h 1.688 v -0.787 c 0,-0.634 -0.165,-1.142 -0.495,-1.523 -0.321,-0.381 -0.833,-0.571 -1.536,-0.571 -0.618,0 -1.104,0.148 -1.46,0.444 -0.347,0.296 -0.52,0.702 -0.52,1.219 h -3.669 c 0,-0.796 0.245,-1.532 0.736,-2.209 0.491,-0.677 1.185,-1.206 2.082,-1.587 0.897,-0.39 1.904,-0.584 3.022,-0.584 1.692,0 3.034,0.427 4.024,1.282 0.999,0.846 1.498,2.04 1.498,3.58 v 5.954 c 0.009,1.304 0.191,2.29 0.546,2.958 v 0.216 z m -3.034,-2.552 c 0.541,0 1.041,-0.118 1.498,-0.355 0.457,-0.246 0.795,-0.572 1.015,-0.978 v -2.361 h -1.371 c -1.836,0 -2.814,0.635 -2.932,1.904 l -0.013,0.216 c 0,0.457 0.161,0.834 0.483,1.13 0.321,0.296 0.761,0.444 1.32,0.444 z m 14.123,-2.64 2.539,-8.544 h 3.935 l -5.522,15.869 -0.305,0.723 c -0.821,1.795 -2.175,2.692 -4.062,2.692 -0.534,0 -1.075,-0.081 -1.625,-0.241 v -2.781 l 0.558,0.013 c 0.694,0 1.21,-0.106 1.549,-0.317 0.347,-0.212 0.618,-0.563 0.812,-1.054 l 0.432,-1.13 -4.811,-13.774 h 3.948 z m 14.249,5.446 c -2.014,0 -3.656,-0.618 -4.925,-1.854 -1.261,-1.235 -1.892,-2.881 -1.892,-4.938 v -0.356 c 0,-1.379 0.267,-2.611 0.8,-3.694 0.533,-1.092 1.286,-1.93 2.26,-2.514 0.981,-0.592 2.098,-0.888 3.351,-0.888 1.879,0 3.356,0.592 4.431,1.777 1.083,1.185 1.625,2.865 1.625,5.04 v 1.498 h -8.747 c 0.118,0.897 0.474,1.617 1.066,2.158 0.601,0.542 1.359,0.813 2.273,0.813 1.413,0 2.517,-0.512 3.313,-1.536 l 1.803,2.018 c -0.55,0.779 -1.295,1.388 -2.235,1.828 -0.939,0.432 -1.98,0.648 -3.123,0.648 z m -0.419,-11.274 c -0.727,0 -1.32,0.246 -1.777,0.737 -0.449,0.491 -0.736,1.193 -0.863,2.107 h 5.103 v -0.292 c -0.017,-0.812 -0.237,-1.439 -0.66,-1.879 -0.423,-0.448 -1.024,-0.673 -1.803,-0.673 z m 7.776,4.05 c 0,-2.141 0.478,-3.846 1.434,-5.116 0.965,-1.269 2.281,-1.904 3.948,-1.904 1.338,0 2.442,0.499 3.314,1.498 v -7.008 h 3.681 v 19.5 h -3.313 l -0.178,-1.46 c -0.914,1.143 -2.09,1.714 -3.529,1.714 -1.617,0 -2.916,-0.635 -3.898,-1.904 -0.973,-1.278 -1.459,-3.051 -1.459,-5.32 z m 3.668,0.267 c 0,1.286 0.225,2.272 0.673,2.958 0.449,0.685 1.101,1.028 1.955,1.028 1.135,0 1.934,-0.478 2.4,-1.434 v -5.421 c -0.457,-0.957 -1.249,-1.435 -2.374,-1.435 -1.769,0 -2.654,1.435 -2.654,4.304 z"
     fill="#1d1d1d"
     id="path5301" />
  <rect
     x="2"
     y="540.88098"
     width="308"
     height="72"
     rx="3"
     fill="#e2e4f6"
     stroke="#0135b4"
     stroke-width="4"
     id="rect5303" />
  <path
     d="m 123.861,578.327 h -7.312 v 7.554 h -3.809 v -18.484 h 12.035 v 3.085 h -8.226 v 4.773 h 7.312 z m 11.013,6.158 c -0.906,1.1 -2.159,1.65 -3.758,1.65 -1.473,0 -2.598,-0.423 -3.377,-1.27 -0.77,-0.846 -1.164,-2.086 -1.181,-3.719 v -9.001 h 3.669 v 8.874 c 0,1.43 0.652,2.145 1.955,2.145 1.244,0 2.099,-0.431 2.565,-1.295 v -9.724 h 3.681 v 13.736 h -3.453 z m 10.898,-15.717 v 3.377 h 2.349 v 2.691 h -2.349 v 6.856 c 0,0.507 0.097,0.871 0.292,1.091 0.195,0.22 0.567,0.33 1.117,0.33 0.406,0 0.766,-0.029 1.079,-0.088 v 2.78 c -0.719,0.22 -1.46,0.33 -2.222,0.33 -2.572,0 -3.884,-1.299 -3.935,-3.898 v -7.401 h -2.006 v -2.691 h 2.006 v -3.377 z m 12.802,15.717 c -0.905,1.1 -2.158,1.65 -3.757,1.65 -1.473,0 -2.599,-0.423 -3.377,-1.27 -0.771,-0.846 -1.164,-2.086 -1.181,-3.719 v -9.001 h 3.669 v 8.874 c 0,1.43 0.652,2.145 1.955,2.145 1.244,0 2.099,-0.431 2.564,-1.295 v -9.724 h 3.682 v 13.736 h -3.453 z m 14.225,-8.9 c -0.5,-0.068 -0.94,-0.101 -1.321,-0.101 -1.388,0 -2.297,0.469 -2.729,1.409 v 8.988 h -3.669 v -13.736 h 3.466 l 0.101,1.637 c 0.737,-1.261 1.757,-1.891 3.06,-1.891 0.406,0 0.787,0.055 1.142,0.165 z m 8.029,10.55 c -2.015,0 -3.657,-0.618 -4.926,-1.854 -1.261,-1.235 -1.892,-2.881 -1.892,-4.938 v -0.356 c 0,-1.379 0.267,-2.611 0.8,-3.694 0.533,-1.092 1.287,-1.93 2.26,-2.514 0.982,-0.592 2.099,-0.888 3.351,-0.888 1.879,0 3.356,0.592 4.431,1.777 1.083,1.185 1.625,2.865 1.625,5.04 v 1.498 h -8.747 c 0.119,0.897 0.474,1.617 1.066,2.158 0.601,0.542 1.359,0.813 2.273,0.813 1.413,0 2.518,-0.512 3.313,-1.536 l 1.803,2.018 c -0.55,0.779 -1.295,1.388 -2.234,1.828 -0.94,0.432 -1.981,0.648 -3.123,0.648 z m -0.419,-11.274 c -0.728,0 -1.321,0.246 -1.778,0.737 -0.448,0.491 -0.736,1.193 -0.863,2.107 h 5.104 v -0.292 c -0.017,-0.812 -0.237,-1.439 -0.66,-1.879 -0.424,-0.448 -1.025,-0.673 -1.803,-0.673 z m 15.786,7.224 c 0,-0.448 -0.225,-0.8 -0.673,-1.054 -0.44,-0.262 -1.151,-0.495 -2.133,-0.698 -3.267,-0.685 -4.9,-2.073 -4.9,-4.164 0,-1.219 0.503,-2.234 1.51,-3.047 1.016,-0.821 2.341,-1.231 3.974,-1.231 1.743,0 3.136,0.41 4.177,1.231 1.049,0.821 1.574,1.888 1.574,3.199 h -3.669 c 0,-0.524 -0.169,-0.956 -0.508,-1.294 -0.338,-0.347 -0.867,-0.521 -1.587,-0.521 -0.618,0 -1.096,0.14 -1.434,0.419 -0.339,0.279 -0.508,0.635 -0.508,1.066 0,0.407 0.19,0.737 0.571,0.991 0.39,0.245 1.041,0.461 1.955,0.647 0.914,0.178 1.685,0.381 2.311,0.609 1.938,0.711 2.907,1.943 2.907,3.695 0,1.252 -0.537,2.268 -1.612,3.047 -1.075,0.77 -2.463,1.155 -4.164,1.155 -1.151,0 -2.175,-0.203 -3.073,-0.609 -0.888,-0.415 -1.587,-0.978 -2.094,-1.689 -0.508,-0.719 -0.762,-1.494 -0.762,-2.323 h 3.478 c 0.034,0.652 0.276,1.151 0.724,1.498 0.449,0.347 1.05,0.52 1.803,0.52 0.702,0 1.231,-0.131 1.587,-0.393 0.364,-0.271 0.546,-0.622 0.546,-1.054 z"
     fill="#1d1d1d"
     id="path5305" />
  <path
     d="m 415.023,32.086 h 58.75 L 455.855,50 461.691,55.836 489.605,27.918 461.691,0 455.855,5.836 473.773,23.75 h -58.75 z"
     fill="#d2d0cc"
     id="path5307" />
  <path
     d="m 995.52,32.086 h 58.75 L 1036.35,50 1042.18,55.836 1070.1,27.918 1042.19,0 l -5.84,5.836 17.92,17.914 h -58.75 z"
     fill="#d2d0cc"
     id="path5309" />
</svg>
