<?xml version="1.0" encoding="UTF-8" standalone="no"?>
<svg
   xmlns:dc="http://purl.org/dc/elements/1.1/"
   xmlns:cc="http://creativecommons.org/ns#"
   xmlns:rdf="http://www.w3.org/1999/02/22-rdf-syntax-ns#"
   xmlns:svg="http://www.w3.org/2000/svg"
   xmlns="http://www.w3.org/2000/svg"
   xmlns:sodipodi="http://sodipodi.sourceforge.net/DTD/sodipodi-0.dtd"
   xmlns:inkscape="http://www.inkscape.org/namespaces/inkscape"
   width="651.60498"
   height="310.96301"
   viewBox="0 0 651.605 310.96301"
   version="1.1"
   id="svg5311"
   sodipodi:docname="dask-overview-task.svg"
   inkscape:version="0.92.5 (2060ec1f9f, 2020-04-08)"
   style="fill:none">
  <metadata
     id="metadata60">
    <rdf:RDF>
      <cc:Work
         rdf:about="">
        <dc:format>image/svg+xml</dc:format>
        <dc:type
           rdf:resource="http://purl.org/dc/dcmitype/StillImage" />
        <dc:title></dc:title>
      </cc:Work>
    </rdf:RDF>
  </metadata>
  <defs
     id="defs5315" />
  <sodipodi:namedview
     id="namedview5313"
     pagecolor="#ffffff"
     bordercolor="#666666"
     borderopacity="1.0"
     inkscape:pageshadow="2"
     inkscape:pageopacity="0.0"
     inkscape:pagecheckerboard="0"
     showgrid="false"
     inkscape:zoom="0.5787037"
     inkscape:cx="320.00702"
     inkscape:cy="242.58734"
     inkscape:window-width="1848"
     inkscape:window-height="1023"
     inkscape:window-x="72"
     inkscape:window-y="27"
     inkscape:window-maximized="0"
     inkscape:current-layer="svg5311"
     fit-margin-top="0"
     fit-margin-left="0"
     fit-margin-right="0"
     fit-margin-bottom="0" />
  <rect
     x="2"
     y="2"
     width="71"
     height="71"
     rx="8"
     id="rect5213"
     style="fill:#f2f2f2;stroke:#1d1d1d;stroke-width:4" />
  <rect
     x="144.68903"
     y="64.963028"
     width="71"
     height="71"
     rx="35.5"
     id="rect5215"
     style="fill:#f2f2f2;stroke:#1d1d1d;stroke-width:4" />
  <rect
     x="435.30505"
     y="149.96303"
     width="71"
     height="71"
     rx="35.5"
     id="rect5217"
     style="fill:#f2f2f2;stroke:#1d1d1d;stroke-width:4" />
  <rect
     x="144.68903"
     y="237.96303"
     width="71"
     height="71"
     rx="35.5"
     id="rect5219"
     style="fill:#f2f2f2;stroke:#1d1d1d;stroke-width:4" />
  <rect
     x="2"
     y="116.96303"
     width="71"
     height="71"
     rx="8"
     id="rect5221"
     style="fill:#f2f2f2;stroke:#1d1d1d;stroke-width:4" />
  <rect
     x="289.33099"
     y="64.963028"
     width="71"
     height="71"
     rx="8"
     id="rect5223"
     style="fill:#f2f2f2;stroke:#1d1d1d;stroke-width:4" />
  <rect
     x="578.60498"
     y="149.96303"
     width="71"
     height="71"
     rx="8"
     id="rect5225"
     style="fill:#f2f2f2;stroke:#1d1d1d;stroke-width:4" />
  <rect
     x="289.33099"
     y="237.96303"
     width="71"
     height="71"
     rx="8"
     id="rect5227"
     style="fill:#f2f2f2;stroke:#1d1d1d;stroke-width:4" />
  <rect
     x="2"
     y="237.96303"
     width="71"
     height="71"
     rx="8"
     id="rect5229"
     style="fill:#f2f2f2;stroke:#1d1d1d;stroke-width:4" />
  <path
     d="M 69.515015,273.46302 H 130.53201"
     id="path5231"
     inkscape:connector-curvature="0"
     style="stroke:#1d1d1d;stroke-width:3;stroke-linecap:square" />
  <path
     d="m 136.53101,272.67702 c 0.51,0.4 0.51,1.172 0,1.572 l -4.381,3.443 c -0.656,0.515 -1.618,0.048 -1.618,-0.786 v -6.886 c 0,-0.834 0.962,-1.301 1.618,-0.786 z"
     id="path5233"
     inkscape:connector-curvature="0"
     style="clip-rule:evenodd;fill:#1d1d1d;fill-rule:evenodd" />
  <path
     d="m 73.015015,277.46302 c 2.209,0 4,-1.791 4,-4 0,-2.209 -1.791,-4 -4,-4 -2.209,0 -4,1.791 -4,4 0,2.209 1.791,4 4,4 z"
     id="path5235"
     inkscape:connector-curvature="0"
     style="clip-rule:evenodd;fill:#ffffff;fill-rule:evenodd;stroke:#1d1d1d;stroke-width:3" />
  <path
     d="m 212.51501,273.46302 h 60.017"
     id="path5237"
     inkscape:connector-curvature="0"
     style="stroke:#1d1d1d;stroke-width:3;stroke-linecap:square" />
  <path
     d="m 278.53101,272.67702 c 0.51,0.4 0.51,1.172 0,1.572 l -4.381,3.443 c -0.656,0.515 -1.618,0.048 -1.618,-0.786 v -6.886 c 0,-0.834 0.962,-1.301 1.618,-0.786 z"
     id="path5239"
     inkscape:connector-curvature="0"
     style="clip-rule:evenodd;fill:#1d1d1d;fill-rule:evenodd" />
  <path
     d="m 216.01501,277.46302 c 2.209,0 4,-1.791 4,-4 0,-2.209 -1.791,-4 -4,-4 -2.209,0 -4,1.791 -4,4 0,2.209 1.791,4 4,4 z"
     id="path5241"
     inkscape:connector-curvature="0"
     style="clip-rule:evenodd;fill:#ffffff;fill-rule:evenodd;stroke:#1d1d1d;stroke-width:3" />
  <path
     d="m 212.51501,100.46302 h 60.017"
     id="path5243"
     inkscape:connector-curvature="0"
     style="stroke:#1d1d1d;stroke-width:3;stroke-linecap:square" />
  <path
     d="m 278.53101,99.677016 c 0.51,0.400004 0.51,1.172004 0,1.572004 l -4.381,3.443 c -0.656,0.515 -1.618,0.048 -1.618,-0.786 v -6.886004 c 0,-0.834 0.962,-1.301 1.618,-0.786 z"
     id="path5245"
     inkscape:connector-curvature="0"
     style="clip-rule:evenodd;fill:#1d1d1d;fill-rule:evenodd" />
  <path
     d="m 216.01501,104.46302 c 2.209,0 4,-1.791 4,-4 0,-2.209004 -1.791,-4.000004 -4,-4.000004 -2.209,0 -4,1.791 -4,4.000004 0,2.209 1.791,4 4,4 z"
     id="path5247"
     inkscape:connector-curvature="0"
     style="clip-rule:evenodd;fill:#ffffff;fill-rule:evenodd;stroke:#1d1d1d;stroke-width:3" />
  <path
     d="m 502.51501,185.46302 h 60.02"
     id="path5249"
     inkscape:connector-curvature="0"
     style="stroke:#1d1d1d;stroke-width:3;stroke-linecap:square" />
  <path
     d="m 568.53501,184.67702 c 0.51,0.4 0.51,1.172 0,1.572 l -4.39,3.443 c -0.65,0.515 -1.61,0.048 -1.61,-0.786 v -6.886 c 0,-0.834 0.96,-1.301 1.61,-0.786 z"
     id="path5251"
     inkscape:connector-curvature="0"
     style="clip-rule:evenodd;fill:#1d1d1d;fill-rule:evenodd" />
  <path
     d="m 506.01501,189.46302 c 2.21,0 4,-1.791 4,-4 0,-2.209 -1.79,-4 -4,-4 -2.21,0 -4,1.791 -4,4 0,2.209 1.79,4 4,4 z"
     id="path5253"
     inkscape:connector-curvature="0"
     style="clip-rule:evenodd;fill:#ffffff;fill-rule:evenodd;stroke:#1d1d1d;stroke-width:3" />
  <path
     d="m 69.015015,37.463016 h 21.646 c 5.522,0 9.999995,4.477 9.999995,10 v 44 c 0,5.523 4.477,10.000004 10,10.000004 h 20.854"
     id="path5255"
     inkscape:connector-curvature="0"
     style="stroke:#1d1d1d;stroke-width:3" />
  <path
     d="m 73.015015,41.463016 c 2.209,0 4,-1.791 4,-4 0,-2.209 -1.791,-4 -4,-4 -2.209,0 -4,1.791 -4,4 0,2.209 1.791,4 4,4 z"
     id="path5257"
     inkscape:connector-curvature="0"
     style="clip-rule:evenodd;fill:#ffffff;fill-rule:evenodd;stroke:#1d1d1d;stroke-width:3" />
  <path
     d="m 131.13301,105.69202 c -0.656,0.515 -1.618,0.048 -1.618,-0.786 v -6.886004 c 0,-0.834 0.962,-1.301 1.618,-0.786 l 4.381,3.443004 c 0.51,0.4 0.51,1.172 0,1.572 z"
     id="path5259"
     inkscape:connector-curvature="0"
     style="clip-rule:evenodd;fill:#1d1d1d;fill-rule:evenodd" />
  <path
     d="m 357.01501,100.46302 h 22.66 c 5.52,0 10,4.477 10,10 v 62 c 0,5.523 4.48,10 10,10 h 21.84"
     id="path5261"
     inkscape:connector-curvature="0"
     style="stroke:#1d1d1d;stroke-width:3" />
  <path
     d="m 361.01501,104.46302 c 2.21,0 4,-1.791 4,-4 0,-2.209004 -1.79,-4.000004 -4,-4.000004 -2.21,0 -4,1.791 -4,4.000004 0,2.209 1.79,4 4,4 z"
     id="path5263"
     inkscape:connector-curvature="0"
     style="clip-rule:evenodd;fill:#ffffff;fill-rule:evenodd;stroke:#1d1d1d;stroke-width:3" />
  <path
     d="m 421.13501,186.69202 c -0.66,0.515 -1.62,0.048 -1.62,-0.786 v -6.886 c 0,-0.834 0.96,-1.301 1.62,-0.786 l 4.38,3.443 c 0.51,0.4 0.51,1.172 0,1.572 z"
     id="path5265"
     inkscape:connector-curvature="0"
     style="clip-rule:evenodd;fill:#1d1d1d;fill-rule:evenodd" />
  <path
     d="m 69.015015,154.46302 h 21.646 c 5.522,0 9.999995,-4.477 9.999995,-10 v -33 c 0,-5.523 4.477,-10 10,-10 h 20.854"
     id="path5267"
     inkscape:connector-curvature="0"
     style="stroke:#1d1d1d;stroke-width:3" />
  <path
     d="m 73.015015,150.46302 c 2.209,0 4,1.791 4,4 0,2.209 -1.791,4 -4,4 -2.209,0 -4,-1.791 -4,-4 0,-2.209 1.791,-4 4,-4 z"
     id="path5269"
     inkscape:connector-curvature="0"
     style="clip-rule:evenodd;fill:#ffffff;fill-rule:evenodd;stroke:#1d1d1d;stroke-width:3" />
  <path
     d="m 131.13301,97.234016 c -0.656,-0.515 -1.618,-0.048 -1.618,0.786 v 6.886004 c 0,0.834 0.962,1.301 1.618,0.786 l 4.381,-3.443 c 0.51,-0.4 0.51,-1.172 0,-1.572 z"
     id="path5271"
     inkscape:connector-curvature="0"
     style="clip-rule:evenodd;fill:#1d1d1d;fill-rule:evenodd" />
  <path
     d="m 357.01501,273.46302 h 22.66 c 5.52,0 10,-4.477 10,-10 v -71 c 0,-5.523 4.48,-10 10,-10 h 21.84"
     id="path5273"
     inkscape:connector-curvature="0"
     style="stroke:#1d1d1d;stroke-width:3" />
  <path
     d="m 361.01501,269.46302 c 2.21,0 4,1.791 4,4 0,2.209 -1.79,4 -4,4 -2.21,0 -4,-1.791 -4,-4 0,-2.209 1.79,-4 4,-4 z"
     id="path5275"
     inkscape:connector-curvature="0"
     style="clip-rule:evenodd;fill:#ffffff;fill-rule:evenodd;stroke:#1d1d1d;stroke-width:3" />
  <path
     d="m 421.13501,178.23402 c -0.66,-0.515 -1.62,-0.048 -1.62,0.786 v 6.886 c 0,0.834 0.96,1.301 1.62,0.786 l 4.38,-3.443 c 0.51,-0.4 0.51,-1.172 0,-1.572 z"
     id="path5277"
     inkscape:connector-curvature="0"
     style="clip-rule:evenodd;fill:#1d1d1d;fill-rule:evenodd" />
</svg>
