<svg width="170" height="170" style="stroke:#d1cfc7;stroke-width:1;fill:#d1cfc7" xmlns="http://www.w3.org/2000/svg">
  <line x1="0" y1="0" x2="120" y2="0" style="stroke-width:2"></line>
  <line x1="0" y1="12" x2="120" y2="12"></line>
  <line x1="0" y1="24" x2="120" y2="24"></line>
  <line x1="0" y1="36" x2="120" y2="36"></line>
  <line x1="0" y1="48" x2="120" y2="48"></line>
  <line x1="0" y1="60" x2="120" y2="60"></line>
  <line x1="0" y1="72" x2="120" y2="72"></line>
  <line x1="0" y1="84" x2="120" y2="84"></line>
  <line x1="0" y1="96" x2="120" y2="96"></line>
  <line x1="0" y1="108" x2="120" y2="108"></line>
  <line x1="0" y1="120" x2="120" y2="120" style="stroke-width:2"></line>

  <line x1="0" y1="0" x2="0" y2="120" style="stroke-width:2"></line>
  <line x1="12" y1="0" x2="12" y2="120"></line>
  <line x1="24" y1="0" x2="24" y2="120"></line>
  <line x1="36" y1="0" x2="36" y2="120"></line>
  <line x1="48" y1="0" x2="48" y2="120"></line>
  <line x1="60" y1="0" x2="60" y2="120"></line>
  <line x1="72" y1="0" x2="72" y2="120"></line>
  <line x1="84" y1="0" x2="84" y2="120"></line>
  <line x1="96" y1="0" x2="96" y2="120"></line>
  <line x1="108" y1="0" x2="108" y2="120"></line>
  <line x1="120" y1="0" x2="120" y2="120" style="stroke-width:2"></line>

  <polygon points="0.0,0.0 120.0,0.0 120.0,120.0 0.0,120.0" style="fill:#e85124A0;stroke-width:0"></polygon>
  <text x="60.000000" y="140.000000" font-size="1.0rem" font-weight="100" text-anchor="middle" fill="#d1cfc7">10000</text>
  <text x="140.000000" y="60.000000" font-size="1.0rem" font-weight="100" text-anchor="middle" transform="rotate(-90,140.000000,60.000000)">10000</text>
</svg>